<svg xmlns="http://www.w3.org/2000/svg" xmlns:xlink="http://www.w3.org/1999/xlink" viewBox="0 0 3559.33 3565.93"><defs><style>.cls-1{fill:none;}.cls-2{isolation:isolate;}.cls-3{fill:url(#linear-gradient);}.cls-4{opacity:0.3;}.cls-5{fill:#bdd0fb;}.cls-6{fill:url(#linear-gradient-2);}.cls-7{fill:url(#linear-gradient-3);}.cls-8{fill:url(#linear-gradient-4);}.cls-9{fill:url(#linear-gradient-5);}.cls-10,.cls-23,.cls-38,.cls-53{fill:#fff;}.cls-10{mix-blend-mode:soft-light;}.cls-11,.cls-13{fill:#91b3fa;}.cls-12{fill:url(#linear-gradient-6);}.cls-13{opacity:0.2;}.cls-14{fill:#7d97f4;}.cls-15{fill:url(#linear-gradient-7);}.cls-16{fill:url(#linear-gradient-8);}.cls-17{fill:#f4f7fa;}.cls-18{fill:url(#linear-gradient-9);}.cls-19{fill:url(#linear-gradient-10);}.cls-20{fill:url(#linear-gradient-11);}.cls-21{fill:url(#linear-gradient-12);}.cls-22{fill:url(#linear-gradient-13);}.cls-24{clip-path:url(#clip-path);}.cls-25{fill:url(#linear-gradient-14);}.cls-26{fill:url(#linear-gradient-15);}.cls-27{fill:url(#linear-gradient-16);}.cls-28{fill:url(#linear-gradient-17);}.cls-29{fill:url(#linear-gradient-18);}.cls-30{fill:url(#linear-gradient-19);}.cls-31{fill:url(#linear-gradient-20);}.cls-32{fill:url(#linear-gradient-21);}.cls-33{fill:url(#linear-gradient-22);}.cls-34{fill:url(#linear-gradient-23);}.cls-35{fill:url(#linear-gradient-24);}.cls-36{fill:url(#linear-gradient-25);}.cls-37{fill:url(#linear-gradient-26);}.cls-38{opacity:0.77;}.cls-39{fill:url(#linear-gradient-27);}.cls-40{fill:url(#linear-gradient-28);}.cls-41{fill:url(#linear-gradient-29);}.cls-42{fill:url(#linear-gradient-30);}.cls-43{fill:url(#linear-gradient-31);}.cls-44{fill:url(#linear-gradient-32);}.cls-45{fill:url(#linear-gradient-33);}.cls-46{fill:url(#linear-gradient-34);}.cls-47{fill:url(#linear-gradient-35);}.cls-48{fill:url(#linear-gradient-36);}.cls-49{fill:url(#linear-gradient-37);}.cls-50{fill:url(#linear-gradient-38);}.cls-51{fill:url(#linear-gradient-39);}.cls-52{fill:url(#linear-gradient-40);}.cls-53{opacity:0.39;}</style><linearGradient id="linear-gradient" x1="3912.72" y1="3681.1" x2="1282.39" y2="1379.57" gradientUnits="userSpaceOnUse"><stop offset="0" stop-color="#dae3fe"/><stop offset="1" stop-color="#e9effd"/></linearGradient><linearGradient id="linear-gradient-2" x1="1154.67" y1="587.1" x2="1282.28" y2="587.1" xlink:href="#linear-gradient"/><linearGradient id="linear-gradient-3" x1="1060.7" y1="586.1" x2="1374.46" y2="586.1" xlink:href="#linear-gradient"/><linearGradient id="linear-gradient-4" x1="1601.91" y1="840.35" x2="1688.85" y2="840.35" xlink:href="#linear-gradient"/><linearGradient id="linear-gradient-5" x1="1536.55" y1="839.66" x2="1753.01" y2="839.66" xlink:href="#linear-gradient"/><linearGradient id="linear-gradient-6" x1="2093.43" y1="788.19" x2="1628.41" y2="5128.43" gradientUnits="userSpaceOnUse"><stop offset="0" stop-color="#4f52ff"/><stop offset="1" stop-color="#4042e2"/></linearGradient><linearGradient id="linear-gradient-7" x1="4019.32" y1="-277.21" x2="3787.76" y2="346.71" gradientUnits="userSpaceOnUse"><stop offset="0" stop-color="#ff928e"/><stop offset="1" stop-color="#fe7062"/></linearGradient><linearGradient id="linear-gradient-8" x1="2933.07" y1="2907.76" x2="3466.92" y2="1047.89" gradientTransform="translate(-7.16 4.81) rotate(-0.14)" gradientUnits="userSpaceOnUse"><stop offset="0" stop-color="#febbba"/><stop offset="1" stop-color="#ff928e"/></linearGradient><linearGradient id="linear-gradient-9" x1="2900.2" y1="2950.96" x2="3434.05" y2="1091.09" gradientTransform="matrix(1, -0.01, 0, 1, -80.05, -66.83)" xlink:href="#linear-gradient-8"/><linearGradient id="linear-gradient-10" x1="2919.71" y1="2956.56" x2="3453.56" y2="1096.69" gradientTransform="matrix(1, -0.01, 0, 1, -80.05, -66.83)" xlink:href="#linear-gradient-8"/><linearGradient id="linear-gradient-11" x1="2939.22" y1="2962.16" x2="3473.08" y2="1102.28" gradientTransform="matrix(1, -0.01, 0, 1, -80.05, -66.83)" xlink:href="#linear-gradient-8"/><linearGradient id="linear-gradient-12" x1="4020.76" y1="-276.67" x2="3789.2" y2="347.25" xlink:href="#linear-gradient-7"/><linearGradient id="linear-gradient-13" x1="2934.06" y1="2908.05" x2="3467.92" y2="1048.18" xlink:href="#linear-gradient-8"/><clipPath id="clip-path" transform="translate(-71.62 -78.02)"><rect class="cls-1" x="499.99" y="1539.39" width="1184.98" height="1278.94" rx="12" ry="12"/></clipPath><linearGradient id="linear-gradient-14" x1="1487.46" y1="2186.51" x2="1664.56" y2="2777.32" gradientUnits="userSpaceOnUse"><stop offset="0" stop-color="#09005d"/><stop offset="1" stop-color="#1a0f91"/></linearGradient><linearGradient id="linear-gradient-15" x1="478.27" y1="2373.72" x2="658.01" y2="2973.33" xlink:href="#linear-gradient-14"/><linearGradient id="linear-gradient-16" x1="2379.49" y1="-885.8" x2="2147.93" y2="-261.88" xlink:href="#linear-gradient-7"/><linearGradient id="linear-gradient-17" x1="1078.36" y1="2166.85" x2="1105.27" y2="2618.13" gradientTransform="matrix(1, 0, 0, 1, 0, 0)" xlink:href="#linear-gradient-8"/><linearGradient id="linear-gradient-18" x1="1025.34" y1="1806.45" x2="1403.13" y2="2310.51" gradientTransform="matrix(1, 0, 0, 1, 0, 0)" xlink:href="#linear-gradient-8"/><linearGradient id="linear-gradient-19" x1="1136.23" y1="1723.34" x2="1514.02" y2="2227.4" gradientTransform="matrix(1, 0, 0, 1, 0, 0)" xlink:href="#linear-gradient-8"/><linearGradient id="linear-gradient-20" x1="896.43" y1="1903.07" x2="1274.22" y2="2407.13" gradientTransform="matrix(1, 0, 0, 1, 0, 0)" xlink:href="#linear-gradient-8"/><linearGradient id="linear-gradient-21" x1="891.22" y1="1980.38" x2="1257.96" y2="1980.38" xlink:href="#linear-gradient-14"/><linearGradient id="linear-gradient-22" x1="1077.13" y1="2116.64" x2="1077.13" y2="1436.83" xlink:href="#linear-gradient-14"/><linearGradient id="linear-gradient-23" x1="727.18" y1="2272.5" x2="918.12" y2="2909.47" xlink:href="#linear-gradient-14"/><linearGradient id="linear-gradient-24" x1="1344.14" y1="2098.07" x2="1553.08" y2="2795.08" xlink:href="#linear-gradient-14"/><linearGradient id="linear-gradient-25" x1="3611.09" y1="1599.8" x2="3457.96" y2="2069.17" gradientTransform="translate(-755)" xlink:href="#linear-gradient-8"/><linearGradient id="linear-gradient-26" x1="2278.27" y1="-95.74" x2="2920.89" y2="1481.61" xlink:href="#linear-gradient-7"/><linearGradient id="linear-gradient-27" x1="2352.62" y1="94.32" x2="2876.01" y2="1379.01" xlink:href="#linear-gradient-14"/><linearGradient id="linear-gradient-28" x1="3129.13" y1="-607.59" x2="2897.58" y2="16.33" xlink:href="#linear-gradient-7"/><linearGradient id="linear-gradient-29" x1="2870.01" y1="820.12" x2="2115.26" y2="1583.44" xlink:href="#linear-gradient-7"/><linearGradient id="linear-gradient-30" x1="3183.93" y1="510.19" x2="3827.15" y2="-145.9" gradientUnits="userSpaceOnUse"><stop offset="0" stop-color="#e1473d"/><stop offset="1" stop-color="#e9605a"/></linearGradient><linearGradient id="linear-gradient-31" x1="3576.05" y1="3248.62" x2="3893.12" y2="3248.62" gradientTransform="translate(-755)" xlink:href="#linear-gradient-8"/><linearGradient id="linear-gradient-32" x1="4011.87" y1="2539.56" x2="3854.84" y2="3560.19" gradientTransform="translate(-755)" xlink:href="#linear-gradient-14"/><linearGradient id="linear-gradient-33" x1="3679.63" y1="2488.45" x2="3522.6" y2="3509.09" gradientTransform="translate(-755)" xlink:href="#linear-gradient-14"/><linearGradient id="linear-gradient-34" x1="3383.65" y1="3272.2" x2="3567.26" y2="3272.2" gradientTransform="translate(-755)" xlink:href="#linear-gradient-8"/><linearGradient id="linear-gradient-35" x1="2988.13" y1="1894.66" x2="3347.58" y2="1894.66" gradientTransform="translate(-755)" xlink:href="#linear-gradient-8"/><linearGradient id="linear-gradient-36" x1="4157.59" y1="1693.08" x2="3405.02" y2="2001.82" xlink:href="#linear-gradient-7"/><linearGradient id="linear-gradient-37" x1="3221.55" y1="2442.74" x2="3810.37" y2="3106.8" gradientTransform="translate(-755)" xlink:href="#linear-gradient-30"/><linearGradient id="linear-gradient-38" x1="3439.32" y1="2071.13" x2="3551.67" y2="2071.13" gradientTransform="translate(-755)" xlink:href="#linear-gradient-8"/><linearGradient id="linear-gradient-39" x1="3617.89" y1="1925.93" x2="4435.7" y2="1981.54" gradientTransform="translate(-755)" xlink:href="#linear-gradient-8"/><linearGradient id="linear-gradient-40" x1="437.91" y1="3454.8" x2="-139.22" y2="3934.63" gradientTransform="translate(6632.9 1633.76) rotate(81.48)" xlink:href="#linear-gradient-14"/></defs><title>id-card</title><g class="cls-2"><g id="Illustration"><path class="cls-3" d="M3465.7,2485.81C3125.75,3286.25,2220.22,3734.65,1434.94,3613.7c-127.78-19.68-478.1-78.31-788.25-354.91C49.62,2726.33-78.07,1672,403.57,929c350.55-540.79,978.94-847.35,1576-832,128.61,3.3,621.52,23.66,1054.7,380.85,63.63,52.46,204,177.13,330.43,374.91C3661.72,1317.12,3687.24,1964.16,3465.7,2485.81Z" transform="translate(-71.62 -78.02)"/><g class="cls-4"><path class="cls-5" d="M1573.08,665a9.3,9.3,0,0,1-7.47-10.83c1.8-9.82,3.21-19.86,4.17-29.85a9.3,9.3,0,0,1,10-8.38h0.18a9.3,9.3,0,0,1,8.36,10.16c-1,10.51-2.49,21.08-4.39,31.42a9.3,9.3,0,0,1-9.85,7.59A9,9,0,0,1,1573.08,665Zm-1.94-89.61c-0.41-10-1.24-20.12-2.49-30A9.3,9.3,0,1,1,1587.1,543c1.32,10.42,2.2,21,2.63,31.59a9.3,9.3,0,0,1-8.92,9.67,9.47,9.47,0,0,1-1.1,0A9.3,9.3,0,0,1,1571.14,575.36Zm-12-78c-2.62-9.65-5.69-19.31-9.13-28.7a9.3,9.3,0,1,1,17.47-6.4c3.62,9.89,6.86,20.06,9.61,30.23A9.3,9.3,0,1,1,1559.16,497.34ZM1530,424c-4.72-8.83-9.87-17.56-15.32-26a9.3,9.3,0,1,1,15.6-10.14c5.74,8.83,11.16,18,16.13,27.32A9.3,9.3,0,0,1,1530,424Zm-44.75-65.06c-6.54-7.55-13.51-14.92-20.69-21.91a9.3,9.3,0,1,1,13-13.33c7.56,7.36,14.88,15.12,21.77,23.06A9.3,9.3,0,1,1,1485.27,358.89Zm-58-53.54c-8.06-5.92-16.48-11.57-25-16.79a9.3,9.3,0,0,1,9.7-15.88c9,5.49,17.85,11.44,26.33,17.67A9.3,9.3,0,0,1,1427.24,305.35Zm-341.39-52.68a9.3,9.3,0,0,1,5.56-11.92c9.89-3.6,20.07-6.82,30.26-9.56a9.3,9.3,0,0,1,4.84,18c-9.67,2.6-19.34,5.66-28.73,9.08A9.29,9.29,0,0,1,1085.84,252.67Zm273,13.36c-9.17-4-18.63-7.61-28.11-10.78a9.3,9.3,0,1,1,5.91-17.64c10,3.35,19.94,7.17,29.6,11.36A9.3,9.3,0,1,1,1358.82,266Zm-194.67-34.37a9.3,9.3,0,0,1,8.09-10.38c10.44-1.29,21.08-2.16,31.62-2.57a9.3,9.3,0,1,1,.72,18.59c-10,.39-20.12,1.21-30,2.44A9.31,9.31,0,0,1,1164.15,231.66ZM1283.35,243c-9.83-1.82-19.86-3.25-29.83-4.23a9.3,9.3,0,0,1,1.62-18.53l0.2,0c10.49,1,21.06,2.53,31.4,4.45a9.3,9.3,0,0,1-2.4,18.42C1284,243.1,1283.68,243.05,1283.35,243Z" transform="translate(-71.62 -78.02)"/><path class="cls-5" d="M1034.77,286.58a9.25,9.25,0,0,0,5.41-1.25c4.14-2.43,8.39-4.81,12.65-7.08a9.3,9.3,0,1,0-8.75-16.41c-4.48,2.39-9,4.89-13.31,7.44A9.3,9.3,0,0,0,1034.77,286.58Z" transform="translate(-71.62 -78.02)"/></g><g class="cls-4"><path class="cls-5" d="M865.6,514.2a9.3,9.3,0,0,0,9.75-7.1c1.12-4.66,2.36-9.38,3.68-14A9.3,9.3,0,1,0,861.13,488c-1.39,4.89-2.69,9.85-3.88,14.76A9.3,9.3,0,0,0,865.6,514.2Z" transform="translate(-71.62 -78.02)"/><path class="cls-5" d="M1171.26,958.54a9.3,9.3,0,1,1,2.34-18.46c9.7,1.23,19.61,2.07,29.56,2.5a9.3,9.3,0,0,1-.81,18.59q-6.46-.28-12.87-0.78C1183.39,959.92,1177.26,959.3,1171.26,958.54Zm71.65-7a9.3,9.3,0,0,1,8.41-10.12c9.82-.91,19.71-2.24,29.39-4a9.3,9.3,0,1,1,3.26,18.31c-10.19,1.81-20.6,3.22-30.94,4.17A9.29,9.29,0,0,1,1242.91,951.53Zm-121.38-2.8c-10-2.69-20-5.85-29.77-9.39a9.3,9.3,0,1,1,6.34-17.49c9.27,3.36,18.77,6.36,28.26,8.92A9.3,9.3,0,0,1,1121.53,948.73Zm199.92-11.23a9.3,9.3,0,0,1,6-11.72c9.37-3,18.72-6.51,27.79-10.33a9.3,9.3,0,0,1,7.21,17.15c-9.55,4-19.4,7.68-29.26,10.88A9.29,9.29,0,0,1,1321.45,937.5Zm-276-18.66c-9.15-4.82-18.22-10.11-27-15.7a9.3,9.3,0,1,1,10-15.67c8.31,5.31,16.92,10.33,25.61,14.91A9.3,9.3,0,1,1,1045.44,918.84ZM977.76,873c-7.89-6.72-15.59-13.86-22.89-21.2a9.3,9.3,0,1,1,13.2-13.11c6.93,7,14.25,13.76,21.75,20.15A9.3,9.3,0,1,1,977.76,873Zm-56.09-59.52c-6.25-8.29-12.21-16.93-17.73-25.68a9.3,9.3,0,1,1,15.74-9.92c5.24,8.32,10.91,16.53,16.85,24.41A9.3,9.3,0,0,1,921.67,813.47ZM879.9,743.14c-4.28-9.45-8.21-19.19-11.67-29A9.3,9.3,0,1,1,885.76,708c3.29,9.27,7,18.52,11.09,27.5A9.3,9.3,0,0,1,879.9,743.14ZM854.6,665.3c-2.09-10.14-3.77-20.5-5-30.8a9.3,9.3,0,0,1,18.47-2.21c1.17,9.78,2.77,19.62,4.75,29.25A9.3,9.3,0,1,1,854.6,665.3ZM847,583.9c0.12-7.63.48-15.34,1.07-22.93q0.32-4.12.73-8.22A9.2,9.2,0,0,1,859,544.42a9.3,9.3,0,0,1,8.34,10.18q-0.39,3.89-.69,7.81c-0.56,7.22-.9,14.55-1,21.8a9.3,9.3,0,0,1-9.45,9.15l-0.58,0A9.3,9.3,0,0,1,847,583.9Z" transform="translate(-71.62 -78.02)"/><path class="cls-5" d="M1402.46,910.94a9.27,9.27,0,0,0,5.46-1.27c4.33-2.57,8.69-5.28,13-8.05a9.3,9.3,0,1,0-10.14-15.6c-4.05,2.64-8.19,5.21-12.3,7.65A9.3,9.3,0,0,0,1402.46,910.94Z" transform="translate(-71.62 -78.02)"/></g><path class="cls-5" d="M1442.07,756.46a4.35,4.35,0,0,0,.72-5l-24.3-47a230.52,230.52,0,0,0,27-69.65L1495,616.39a4.35,4.35,0,0,0,2.83-4.18l-1.51-63.45a4.35,4.35,0,0,0-3-4l-50.39-16a230.5,230.5,0,0,0-30.23-68.29l22-48.11a4.35,4.35,0,0,0-1-5l-45.93-43.8a4.35,4.35,0,0,0-5-.72l-47,24.3a230.46,230.46,0,0,0-69.65-27l-18.42-49.57a4.35,4.35,0,0,0-4.18-2.83l-63.45,1.51a4.35,4.35,0,0,0-4,3l-16,50.39a230.47,230.47,0,0,0-68.29,30.23l-48.11-22a4.35,4.35,0,0,0-5,1l-43.8,45.93a4.35,4.35,0,0,0-.72,5l24.3,47a230.47,230.47,0,0,0-27,69.65l-49.57,18.42a4.35,4.35,0,0,0-2.83,4.18l1.51,63.45a4.35,4.35,0,0,0,3,4l50.39,16a230.5,230.5,0,0,0,30.23,68.29l-22,48.11a4.35,4.35,0,0,0,1,5l45.94,43.8a4.35,4.35,0,0,0,5,.72l47-24.3a230.5,230.5,0,0,0,69.65,27l18.42,49.57a4.35,4.35,0,0,0,4.18,2.83l63.45-1.51a4.35,4.35,0,0,0,4-3l16-50.39a230.52,230.52,0,0,0,68.29-30.23l48.11,22a4.35,4.35,0,0,0,5-1Z" transform="translate(-71.62 -78.02)"/><path class="cls-6" d="M1204.33,649.32a63.76,63.76,0,1,1,9.26,1.41A63.87,63.87,0,0,1,1204.33,649.32Zm-11.92-103.61a48.92,48.92,0,1,0,36.91-6.3,49.67,49.67,0,0,0-7.17-1.09A48.56,48.56,0,0,0,1192.41,545.71Z" transform="translate(-71.62 -78.02)"/><path class="cls-7" d="M1205.19,742.5a159.87,159.87,0,0,0,16.12.43h0q2.56-.06,5.11-0.2a157.91,157.91,0,0,0,24.89-3.39l0.33-.07,0.95-.21,1.84-.43a3.72,3.72,0,1,0-1.74-7.23,149.61,149.61,0,0,1-159.27-62.21,148.52,148.52,0,0,1-25.23-79.53,151.53,151.53,0,0,1,.41-15.37A149.47,149.47,0,0,1,1214,436.71c82.41-2,151,63.47,152.94,145.84a149.48,149.48,0,0,1-19.35,77.21,3.72,3.72,0,1,0,6.47,3.67,157,157,0,0,0,20.32-81.06c-2.05-86.48-74.11-155.16-160.56-153.11a156.92,156.92,0,0,0-152.67,144.42,160.4,160.4,0,0,0-.43,16.14A156.91,156.91,0,0,0,1205.19,742.5Z" transform="translate(-71.62 -78.02)"/><g class="cls-4"><path class="cls-5" d="M1871.65,934a5.74,5.74,0,0,0,5.81-3.69c1.73-4.56,3.35-9.23,4.8-13.89a5.75,5.75,0,0,0-11-3.43c-1.39,4.44-2.93,8.9-4.58,13.25a5.75,5.75,0,0,0,3.33,7.41A5.82,5.82,0,0,0,1871.65,934Z" transform="translate(-71.62 -78.02)"/><path class="cls-5" d="M1882.89,891.33a5.75,5.75,0,0,1-4.63-6.68,238.85,238.85,0,0,0,3.08-23.91q0.2-2.53.34-5.07a5.75,5.75,0,0,1,6.06-5.41,6,6,0,0,1,5.41,6.06q-0.15,2.66-.35,5.31a249.55,249.55,0,0,1-3.23,25.07,5.74,5.74,0,0,1-6.09,4.71Zm-1.36-64.84a238.17,238.17,0,0,0-3.7-28.94,5.75,5.75,0,0,1,11.29-2.15,249.12,249.12,0,0,1,3.88,30.33,5.75,5.75,0,0,1-5.36,6.11,5.88,5.88,0,0,1-.83,0A5.75,5.75,0,0,1,1881.53,826.49Zm-10.95-57.2a235.91,235.91,0,0,0-10.7-27.15,5.75,5.75,0,0,1,10.41-4.87,247.87,247.87,0,0,1,11.22,28.47A5.75,5.75,0,0,1,1870.58,769.29Zm-24.67-52.76a237,237,0,0,0-17-23.7,5.75,5.75,0,0,1,8.9-7.27,249.14,249.14,0,0,1,17.84,24.85A5.75,5.75,0,0,1,1845.92,716.53Zm-36.8-45.14a239.38,239.38,0,0,0-22.26-18.86,5.75,5.75,0,1,1,6.88-9.2,251.41,251.41,0,0,1,23.33,19.76A5.75,5.75,0,0,1,1809.11,671.39Zm-46.64-34.84a235.71,235.71,0,0,0-26.16-12.84,5.75,5.75,0,0,1,4.42-10.61,247.25,247.25,0,0,1,27.44,13.47A5.75,5.75,0,0,1,1762.47,636.55Zm-53.73-22.37a236.15,236.15,0,0,0-28.54-6,5.75,5.75,0,0,1,1.68-11.37,249.1,249.1,0,0,1,29.92,6.33A5.75,5.75,0,0,1,1708.74,614.18Zm-93.05-12.58a5.74,5.74,0,0,1,5.15-6.28,249.94,249.94,0,0,1,26.54-1.19c1.35,0,2.69,0,4,.06a5.75,5.75,0,0,1-.29,11.49c-1.26,0-2.52-.05-3.81-0.06a238.3,238.3,0,0,0-25.35,1.13,5.67,5.67,0,0,1-1,0A5.75,5.75,0,0,1,1615.69,601.61Z" transform="translate(-71.62 -78.02)"/></g><g class="cls-4"><path class="cls-5" d="M1622.82,1089.38a250.27,250.27,0,0,1-29.74-4.51,5.75,5.75,0,1,1,2.41-11.24,237.63,237.63,0,0,0,28.36,4.3,5.75,5.75,0,0,1-1,11.45h-0.08Zm24.17-4.67a5.74,5.74,0,0,1,5.57-5.91,240.23,240.23,0,0,0,28.59-2.58,5.75,5.75,0,0,1,1.72,11.36,251.28,251.28,0,0,1-30,2.7,5.81,5.81,0,0,1-.62,0A5.74,5.74,0,0,1,1647,1084.71Zm-82.89-7.94a249.28,249.28,0,0,1-27.77-11.57,5.75,5.75,0,0,1,5.05-10.32,238.33,238.33,0,0,0,26.49,11A5.74,5.74,0,1,1,1564.09,1076.77Zm141.13,0.52a5.75,5.75,0,0,1,4-7.08,235.93,235.93,0,0,0,27.12-9.4,5.74,5.74,0,1,1,4.42,10.61,246.45,246.45,0,0,1-28.44,9.86A5.75,5.75,0,0,1,1705.22,1077.29Zm-195-26.94a249.84,249.84,0,0,1-24.17-17.91,5.75,5.75,0,0,1,7.39-8.8,236.37,236.37,0,0,0,23.05,17.08A5.75,5.75,0,0,1,1510.18,1050.35Zm-46-38.59A251.18,251.18,0,0,1,1445,988.59a5.74,5.74,0,0,1,9.28-6.78,240.05,240.05,0,0,0,18.31,22.1A5.75,5.75,0,0,1,1464.16,1011.76Zm-35.45-48.5a248.34,248.34,0,0,1-13.07-27.11,5.75,5.75,0,0,1,10.63-4.35,235,235,0,0,0,12.47,25.85,5.74,5.74,0,0,1-2.21,7.82,5.68,5.68,0,0,1-3.24.72A5.74,5.74,0,0,1,1428.71,963.26Z" transform="translate(-71.62 -78.02)"/><path class="cls-5" d="M1764.72,1058.77a5.72,5.72,0,0,0,3.28-.74c4.27-2.43,8.49-5,12.55-7.64a5.75,5.75,0,1,0-6.27-9.63c-3.86,2.52-7.89,5-12,7.29A5.75,5.75,0,0,0,1764.72,1058.77Z" transform="translate(-71.62 -78.02)"/></g><path class="cls-5" d="M1795,953.67a2.91,2.91,0,0,0,.48-3.34l-16.26-31.46a154.25,154.25,0,0,0,18-46.6l33.17-12.33a2.91,2.91,0,0,0,1.89-2.8l-1-42.46a2.91,2.91,0,0,0-2-2.7l-33.72-10.74a154.23,154.23,0,0,0-20.23-45.69l14.75-32.19a2.91,2.91,0,0,0-.64-3.32l-30.74-29.31a2.91,2.91,0,0,0-3.34-.48l-31.45,16.26a154.23,154.23,0,0,0-46.6-18L1665,655.3a2.91,2.91,0,0,0-2.8-1.89l-42.46,1a2.91,2.91,0,0,0-2.7,2l-10.74,33.72a154.21,154.21,0,0,0-45.69,20.23l-32.19-14.75a2.91,2.91,0,0,0-3.32.64L1495.77,727a2.91,2.91,0,0,0-.48,3.34l16.26,31.46a154.21,154.21,0,0,0-18,46.6l-33.17,12.33a2.91,2.91,0,0,0-1.89,2.8l1,42.46a2.91,2.91,0,0,0,2,2.7l33.72,10.74a154.23,154.23,0,0,0,20.23,45.69l-14.75,32.19a2.91,2.91,0,0,0,.64,3.32L1532.06,990a2.91,2.91,0,0,0,3.34.48l31.45-16.26a154.24,154.24,0,0,0,46.6,18l12.33,33.17a2.91,2.91,0,0,0,2.8,1.89l42.46-1a2.91,2.91,0,0,0,2.7-2l10.74-33.72a154.24,154.24,0,0,0,45.69-20.23L1762.37,985a2.91,2.91,0,0,0,3.32-.64Z" transform="translate(-71.62 -78.02)"/><path class="cls-8" d="M1635.75,882.72a43.32,43.32,0,1,1,6.37,1A44.34,44.34,0,0,1,1635.75,882.72Zm-21.54-49.47a32,32,0,0,0,24.09,38.26h0a32,32,0,0,0,14.18-62.35,32.39,32.39,0,0,0-4.64-.7A32,32,0,0,0,1614.21,833.25Z" transform="translate(-71.62 -78.02)"/><path class="cls-9" d="M1636.35,947.57q5.44,0.42,11,.29a108.83,108.83,0,0,0,21.88-2.75l1-.23a5.74,5.74,0,1,0-2.69-11.17,97.05,97.05,0,0,1-20.43,2.66h0l-1.13,0a95.8,95.8,0,0,1-46.08-11,97.27,97.27,0,0,1-21.21-15.12l-0.16-.15-0.48-.45a96.11,96.11,0,0,1-30-67.71,97.9,97.9,0,0,1,.26-10A96.75,96.75,0,1,1,1729,887.35a5.75,5.75,0,0,0,2.16,7.83A5.75,5.75,0,0,0,1739,893a108.24,108.24,0,1,0-202.09-61.92,110.5,110.5,0,0,0-.3,11.13A108.39,108.39,0,0,0,1636.35,947.57Z" transform="translate(-71.62 -78.02)"/><path class="cls-5" d="M384.35,107.14c-7.67-19.2,14.14-36.84,31.49-25.62,176.23,114,614.87,471.6,659.19,1227.79,55.61,948.75,310.52,1252.3,588.74,1415.16,0,0-348.19-37.08-618.6-343C381.24,1630.51,520.65,448.45,384.35,107.14Z" transform="translate(-71.62 -78.02)"/><path class="cls-10" d="M551.61,376.23c37.61,99.91,73.24,200.51,105.13,302.26q48.63,152.36,87.84,307.35c25.69,103.37,49.44,207.2,68.75,311.88,19.77,104.59,35,209.92,50,315.72,15.53,105.66,30.58,212.19,56.58,317.5,25.85,105.12,64.66,208.83,121.27,302.39,14.14,23.31,28.76,46.45,44.59,68.51,15.43,22.35,31.86,44,48.67,65.4a1163,1163,0,0,0,110.12,120.52c79.31,74.83,170,137.52,266.26,187a20.64,20.64,0,0,0,19.41-36.42l-0.07,0c-23.08-12.7-46-25.65-68.24-39.58-11.24-6.79-22.16-14.06-33.2-21.12-10.77-7.47-21.83-14.53-32.35-22.33a1087.9,1087.9,0,0,1-120.78-100.14c-75.77-72-141.16-155.78-195.4-245.06a1039.08,1039.08,0,0,1-69.47-140.27c-19.54-48.49-35.39-98.56-48.4-149.56-26-102.07-41.79-207.39-58.08-312.93S870.55,1395.84,849,1290.77q-16-78.84-34.74-157c-6.11-26.1-12.72-52.07-19.29-78.06Q784.72,1016.78,774,978,730.73,823.22,678,671.4c-35.66-101-74-201-116.11-299.3A5.54,5.54,0,0,0,551.61,376.23Z" transform="translate(-71.62 -78.02)"/><path class="cls-11" d="M765.45,3060.18c-12.19,36.08-57.26,48-86,23-158.63-137.83-571.89-568.09-548-1293.15,20.17-612.28-27.07-946.2-59-1096.3-6.76-31.74,30.93-53.66,55.22-32.13C395.58,899.09,1207,1752.69,765.45,3060.18Z" transform="translate(-71.62 -78.02)"/><path class="cls-10" d="M713.9,3061.61a14.89,14.89,0,0,1-22.11-6.21C688,3046.88,316.53,2193.63,306.12,1341a14.87,14.87,0,1,1,29.74-.36C346.19,2187.06,715.28,3034.95,719,3043.41A14.87,14.87,0,0,1,713.9,3061.61Z" transform="translate(-71.62 -78.02)"/><path class="cls-12" d="M3630.9,1349.65l-37.6,1591.28-5.84,246.1c0,32.16-26.38,58.2-58.54,58.2h-3164c-32.16,0-58.54-26-58.54-58.2l-3.57-246.24L280.08,1369c0-32.16,37.9-94.9,107.31-90.16l3092.21-80A147.53,147.53,0,0,1,3630.9,1349.65Z" transform="translate(-71.62 -78.02)"/><path class="cls-13" d="M3510.1,3137.57c0,30-25.08,54.55-55.74,54.55h-3014c-30.66,0-55.74-24.55-55.74-54.55L359.5,1440.75c0-30,36.08-88.57,102.21-84.17l2945.66-74.67A142.16,142.16,0,0,1,3510.26,1322a136,136,0,0,1,41.23,100.61Z" transform="translate(-71.62 -78.02)"/><path class="cls-14" d="M2923.69,1546.86c-0.77,28-15.62,51-33.2,51.06L1845,1604.14c-19.8.11-35.77-24.38-35.63-54.11h0c0.13-29.77,16.36-54.44,36.19-54.44H2893.21c17.62,0,31.25,23.29,30.49,51.27h0Z" transform="translate(-71.62 -78.02)"/><path class="cls-14" d="M2912.42,2754.25c-0.76,28-15.4,50-32.74,50.1l-1030.84,5.74c-19.52.11-35.27-22.7-35.14-52.43h0c0.13-29.77,16.13-52.76,35.69-52.76h1033c17.37,0,30.82,21.37,30.06,49.35h0Z" transform="translate(-71.62 -78.02)"/><path class="cls-14" d="M2912.52,2560.89c-0.76,28-15.46,49.81-32.87,49.91l-1035,5.65c-19.6.11-35.41-22.36-35.28-52.1h0c0.13-29.77,16.19-52.43,35.83-52.43h1037.1c17.44,0,30.94,21,30.18,49h0Z" transform="translate(-71.62 -78.02)"/><path class="cls-14" d="M2923.59,1761.26c-0.76,23.36-26.58,42.48-57.72,42.74l-997.23,8.32c-32.91.27-59.45-19-59.22-43.05l0-2.71c0.23-24.09,27.18-43.79,60.15-44l999-6c31.2-.19,55.83,18.63,55.07,42Z" transform="translate(-71.62 -78.02)"/><path class="cls-14" d="M2919.82,1971.14c-0.9,23.15-26.77,42.1-57.84,42.33L1867.45,2021c-32.82.25-59.16-18.87-58.78-42.71l0-2.69c0.38-23.87,27.38-43.38,60.25-43.55l996.29-5.18c31.12-.16,55.57,18.51,54.67,41.69Z" transform="translate(-71.62 -78.02)"/><path class="cls-5" d="M3452.55,3202.35h-339a4.29,4.29,0,0,1,0-8.58h339c41.71,0,76.95-38.76,76.95-84.64V2065.94a4.29,4.29,0,0,1,8.58,0V3109.13C3538.08,3159.66,3498.91,3202.35,3452.55,3202.35Z" transform="translate(-71.62 -78.02)"/><path class="cls-5" d="M364.7,2065.94a4.29,4.29,0,0,1-4.29-4.29V1458.57c0-62,46.3-108.79,107.71-108.79H737.79a4.29,4.29,0,1,1,0,8.58H468.13c-57.44,0-99.13,42.15-99.13,100.21v603.08A4.29,4.29,0,0,1,364.7,2065.94Z" transform="translate(-71.62 -78.02)"/><path class="cls-15" d="M3356.38,2007.16l-225.66,2c-41.48.37-75.63-33.81-75.74-76l-0.56-229.89c-0.1-42.15,33.88-76.28,75.37-75.86l225.67,2.29c40.39,0.41,73.39,34.58,73.49,75.95l0.55,225.6C3429.6,1972.66,3396.76,2006.8,3356.38,2007.16Z" transform="translate(-71.62 -78.02)"/><path class="cls-16" d="M3340.58,1985.51L3146.75,1987c-38.32.3-69.68-31.15-69.77-70.11l-0.48-197.25c-0.1-39,31.11-70.37,69.43-70l193.84,1.75c37.44,0.34,67.87,31.79,68,70.1l0.47,194C3408.3,1953.8,3378,1985.21,3340.58,1985.51Zm-194.63-326.1c-33-.28-59.84,26.77-59.76,60.3l0.48,197.16c0.08,33.53,27.07,60.62,60.06,60.37l193.84-1.42c32.24-.24,58.34-27.29,58.26-60.29l-0.47-194.09c-0.08-33-26.31-60.09-58.55-60.37Z" transform="translate(-71.62 -78.02)"/><path class="cls-17" d="M3081.4,1744.13l321.7,1.39Z" transform="translate(-71.62 -78.02)"/><polygon class="cls-18" points="3331.49 1672.32 3009.79 1671.02 3009.77 1661.21 3331.47 1662.67 3331.49 1672.32"/><path class="cls-17" d="M3081.58,1818.29l321.7,0.2Z" transform="translate(-71.62 -78.02)"/><polygon class="cls-19" points="3331.67 1745.3 3009.97 1745.18 3009.95 1735.37 3331.64 1735.64 3331.67 1745.3"/><path class="cls-17" d="M3081.76,1892.45l321.7-1Z" transform="translate(-71.62 -78.02)"/><polygon class="cls-20" points="3331.85 1818.27 3010.16 1819.34 3010.13 1809.53 3331.82 1808.62 3331.85 1818.27"/><path class="cls-21" d="M3288.88,1945.87l-89.88.52c-22.94.13-41.8-18.88-41.86-42.25l-0.42-171.6c-0.06-23.37,18.71-42.36,41.65-42.2l89.89,0.63c22.69,0.16,41.25,19.25,41.31,42.42L3330,1903.5C3330,1926.67,3311.56,1945.73,3288.88,1945.87Z" transform="translate(-71.62 -78.02)"/><path class="cls-22" d="M3288.89,1950.72l-89.89.54c-25.65.16-46.62-21-46.68-47.11l-0.42-171.64c-0.06-26.13,20.8-47.24,46.45-47.05l89.89,0.65c25.35,0.18,46,21.4,46,47.29l0.41,170.08C3334.77,1929.37,3314.24,1950.56,3288.89,1950.72Zm-90.51-255.51c-20.35-.14-36.9,16.62-36.85,37.35l0.42,171.56c0.05,20.73,16.68,37.51,37,37.39l89.89-.5c20.13-.11,36.44-16.93,36.39-37.5l-0.41-170.16c0-20.56-16.44-37.4-36.57-37.54Z" transform="translate(-71.62 -78.02)"/><rect class="cls-23" x="428.83" y="1461.38" width="1184.98" height="1278.94" rx="12" ry="12"/><g class="cls-24"><path class="cls-25" d="M1789.4,2768.3c-35.46-206.51-130.11-395.08-130.11-395.08l-123.93,429.7s2.14,4.84,5.69,15.62l206.35-.44A42.66,42.66,0,0,0,1789.4,2768.3Z" transform="translate(-71.62 -78.02)"/><path class="cls-26" d="M716.72,2818.54c13.58-48.51,24-79.75,24-79.75L538.2,2373.23s-46,54.81-95.29,370.17c-6.15,39.32,23.16,75.15,63,75.15H716.72Z" transform="translate(-71.62 -78.02)"/><path class="cls-27" d="M1414.29,2818.54l-54.92-575.73c-245.32-90.66-554.64,10.8-554.64,10.8l-25.46,564.92h635Z" transform="translate(-71.62 -78.02)"/><path class="cls-28" d="M965.45,2061.22l-4.6,151.93a34.47,34.47,0,0,0,23,33.56c38.85,13.7,119.27,34.54,195.48,7.25a34.38,34.38,0,0,0,22.25-37.4l-22.84-155.34H965.45Z" transform="translate(-71.62 -78.02)"/><path class="cls-29" d="M887.77,1783.91s26.67,272,85.33,341.31c0,0,176,16,240-21.33,0,0,45.33-136,40-317.32,0,0,8.74-165-173.32-178.66C866.44,1591.91,887.77,1783.91,887.77,1783.91Z" transform="translate(-71.62 -78.02)"/><path class="cls-30" d="M1234.42,1869.23s16-48,42.66-48-5.33,128-42.66,128v-80Z" transform="translate(-71.62 -78.02)"/><path class="cls-31" d="M912,1881.84s-22.33-45.4-48.75-41.8,22.54,126.1,59.53,121.07Z" transform="translate(-71.62 -78.02)"/><path class="cls-32" d="M891.22,1817.86s20.94,261.62,92.4,352.87a35.47,35.47,0,0,0,26,13.78c36.47,1.94,129.71,5.41,182.28-6.19,13.09-2.89,23.86-13.1,28.16-27.09,7.66-24.87,14.49-44.66,14.88-53.41,1.78-40.57,11-153,23-306.34L1247,1774.21c-3.3,35.45-25,261.21-59.41,266.44a51.27,51.27,0,0,1-15.44-.49c-20.87-4.21-27.25-20.65-41.77-31.34-25.33-18.65-68.86-14.93-93.15,4.59-10.09,8.1-16.47,18.61-34.11,26.12-11.27,4.8-21.85,6.12-25.23,6-25.14-1.06-50.14-100-64.17-234.61Z" transform="translate(-71.62 -78.02)"/><path class="cls-33" d="M1181.09,1716s-135.87,117.9-283.93,117.44c0,0-84.06-189.43,81.27-220.92s170.66,9,170.66,9,193.32-40.06,107.33,191.44Z" transform="translate(-71.62 -78.02)"/><path class="cls-34" d="M716.18,2818.54H861.74l69.87-595.25c-191.3,17.4-393.41,149.93-393.41,149.93l150.49,365.13A721.2,721.2,0,0,1,716.18,2818.54Z" transform="translate(-71.62 -78.02)"/><path class="cls-35" d="M1545.81,2818.54a961.29,961.29,0,0,1,29.34-97.65l84.14-347.67c-167.63-131-429.82-161.57-429.82-161.57l98,606.89h218.36Z" transform="translate(-71.62 -78.02)"/></g><path class="cls-36" d="M2706.4,1643.66s-209.34,268,29.5,540.63l89.8-8.37S2661.31,1912,2724.55,1693.71a21.19,21.19,0,0,1,21.83-15.36l91.67,6.69a48.34,48.34,0,0,0,33.8-10.53l55.51-44.61Z" transform="translate(-71.62 -78.02)"/><path class="cls-37" d="M3352.55,524.62a141,141,0,0,0-80.28-118.13L2674,122.36a141.13,141.13,0,0,0-121.09,0L1954.7,406.49a141,141,0,0,0-80.28,118.13c-56.11,867.4,500,1183.44,682.36,1263.27a141.29,141.29,0,0,0,113.39,0C2852.5,1708.06,3408.66,1392,3352.55,524.62Z" transform="translate(-71.62 -78.02)"/><path class="cls-38" d="M2432.53,240a6.43,6.43,0,0,1-2.76-12.24l141.35-67.13a6.43,6.43,0,1,1,5.52,11.62l-141.35,67.13A6.35,6.35,0,0,1,2432.53,240Z" transform="translate(-71.62 -78.02)"/><path class="cls-38" d="M1920.17,708.18a6.43,6.43,0,0,1-6.42-6.21c-1.89-56.33-.9-115.08,3-174.62a98.61,98.61,0,0,1,56.18-82.6l402.44-191.13a6.43,6.43,0,1,1,5.52,11.62L1978.4,456.37a85.75,85.75,0,0,0-48.86,71.81c-3.83,59.12-4.81,117.44-2.94,173.35a6.43,6.43,0,0,1-6.21,6.65h-0.22Z" transform="translate(-71.62 -78.02)"/><path class="cls-39" d="M3207.88,558.47a35.24,35.24,0,0,0-20.06-30L2628.58,262.83a35.17,35.17,0,0,0-30.18,0L2039.15,528.44a35.24,35.24,0,0,0-20.06,30c-16.54,323.56,58.2,593.54,222.29,802.78,125.11,159.53,271.46,245,357.22,284.91a35.26,35.26,0,0,0,29.77,0c85.76-39.88,232.11-125.38,357.22-284.91C3149.68,1152,3224.42,882,3207.88,558.47Z" transform="translate(-71.62 -78.02)"/><path class="cls-40" d="M2448.13,906.11h-55.74V684A172.91,172.91,0,0,1,2544.31,512.5l114-13.85a172.75,172.75,0,0,1,193.59,171.49V864.06h-55.74V670.14A117,117,0,0,0,2665,554l-114,13.85A117.12,117.12,0,0,0,2448.13,684V906.11Z" transform="translate(-71.62 -78.02)"/><path class="cls-41" d="M2375.92,856.24l488.59-27.07A34.62,34.62,0,0,1,2901,863.74v387.07a34.62,34.62,0,0,1-34.62,34.62H2389.57a34.62,34.62,0,0,1-34.61-33.49l-11.74-360A34.62,34.62,0,0,1,2375.92,856.24Z" transform="translate(-71.62 -78.02)"/><path class="cls-42" d="M2701.78,1174.55l-29.57-85a28.47,28.47,0,0,1,6.47-29.35,80.25,80.25,0,0,0,23.12-60.28c-1.89-41.47-35.77-75.1-77.25-76.69a80.5,80.5,0,0,0-53.86,143,28.7,28.7,0,0,1,9.32,31.71l-26.66,76.66a28.69,28.69,0,0,0,27.1,38.11h94.25A28.69,28.69,0,0,0,2701.78,1174.55Z" transform="translate(-71.62 -78.02)"/><path class="cls-43" d="M2821.05,2955.92s169.61,369.67,258.6,522.79c0,0,17.67,96.34,0,126.64l-15.06,6.7,70.3-2.09s6.24-129.59,1.37-136.83-14.63-6.76-14.63-6.76-30.14-238.81-117.44-289.78l-84.6-291.39Z" transform="translate(-71.62 -78.02)"/><path class="cls-44" d="M3034.57,3630.2c-0.1,1.69,54.89.92,84.77,0.37a23.76,23.76,0,0,0,22.79-18.73l22.56-118.53a21.31,21.31,0,0,0-16.19-24.76l-12.59-2.88s-18,24.64-12.31,47.85,10.69,83.31-3.6,90.31-55.4,8.23-55.4,8.23S3035.51,3614.93,3034.57,3630.2Z" transform="translate(-71.62 -78.02)"/><path class="cls-45" d="M2660.29,3632.35a6.21,6.21,0,0,0,3.13,11.6c50-.5,162-2.08,172-6.22,12.85-5.34-4.68-51.53-23.14-67.16l-101.9,33.26Z" transform="translate(-71.62 -78.02)"/><path class="cls-46" d="M2628.66,2932.34s109.61,530.24,140.61,633.67l-73.35,46s36.76-6.25,64-8.23,52.33-33.26,52.33-33.26l-8.79-14s-27.49-527.35-20.79-587.24Z" transform="translate(-71.62 -78.02)"/><path class="cls-47" d="M2356.57,1695.55s-15.12,275.83,236,416.78l-60.46,137.89s-227.36-137.52-219-512.59a43.59,43.59,0,0,0-10.67-29.37l-48.32-56.06a86.74,86.74,0,0,1-18.45-77.69l6.36-25.42a13.18,13.18,0,0,1,19.41-8.2l5.05,2.94a88.72,88.72,0,0,1,36.43,40.49l24.26,38.29c8.86,19.81,10.93,28.12,32.55,26.26l40.21,0.45Z" transform="translate(-71.62 -78.02)"/><path class="cls-48" d="M2583.84,2091.66c42,11.65,184.34,49.09,273.2,47.56l-54.55,307.87,4.34,50.21-177.87-.8s-50.07-116.29-89.58-174.27c-11.41-16.74-2.92-36.72,3.55-55.92l-8.88-5.92a24.19,24.19,0,0,1-9.59-27.65l43.32-132.53A13.23,13.23,0,0,1,2583.84,2091.66Z" transform="translate(-71.62 -78.02)"/><path class="cls-49" d="M2614.7,2470.23l3.5,30.42s-50.27,150.54,25.13,502.14c0,0,163.3,46.26,297.52-64.44,0,0-37.86-331.86-48.2-347.32-51.51-77-85.82-93.73-85.82-93.73l-1.55-33.23S2661.72,2490,2614.7,2470.23Z" transform="translate(-71.62 -78.02)"/><path class="cls-50" d="M2684.33,2116.47c-0.62-.82,37.13-114,37.13-114l54.09,4.91,21.13,128.39S2711.91,2152.88,2684.33,2116.47Z" transform="translate(-71.62 -78.02)"/><path class="cls-51" d="M2762.6,1824c-3.61,2.25-115.58,48.52-91.52,164.76a21.82,21.82,0,0,0,12.41,15.55c16.43,7.33,51.8,19.88,94.11,15.58,58.66-6,97.09-108.32,95.46-138.1S2798.34,1801.73,2762.6,1824Z" transform="translate(-71.62 -78.02)"/><path class="cls-52" d="M2753.86,1930.7c-17.36-43.35-33.49-81.45-15.27-110.43,26.78-42.63,133-45.83,188.09,12.27,57.55,60.66,2.84,141.7,62.06,207.47,46.26,51.38,99.59,24.08,164.29,63.12,107.34,64.77,160,260.23,96.36,367.49-104,175.34-521,118.57-585.61-27.51C2606.42,2313.53,2835.41,2134.33,2753.86,1930.7Z" transform="translate(-71.62 -78.02)"/><path class="cls-53" d="M2898.25,2175.93q-0.5-1.22-1-2.46c-12.11-32.26-10.06-71.31,6.29-119.39,25.46-74.87,24.74-99.1,6.87-142.68q-0.78-1.9-1.61-3.85l1.77-.74q0.78,1.84,1.51,3.64c17.88,43.6,18.77,69.26-6.74,144.24-16.2,47.64-18.26,86.27-6.31,118.1,12.91,34.33,48.23,61.14,96.91,73.4,21.23,5.34,43.39,8,64.82,10.59,20.08,2.42,40.85,4.92,60.88,9.62,14.59,3.42,35.82,9.61,51.66,23.76s23.18,34.46,18.86,51.9l-1.86-.46c4.16-16.76-3-36.38-18.27-50-15.52-13.86-36.44-20-50.83-23.33-19.92-4.68-40.64-7.17-60.67-9.58-21.49-2.59-43.71-5.27-65.06-10.64C2947.39,2235.94,2912.12,2209.73,2898.25,2175.93Z" transform="translate(-71.62 -78.02)"/><path class="cls-53" d="M2857.76,2204.47a92.3,92.3,0,0,1-3.49-10.11c-6.1-21.72-3.34-51.08,16.56-67.72l1.23,1.47c-19.24,16.09-21.87,44.6-15.94,65.73,7.67,27.32,29.2,52.85,60.64,71.92,20.72,12.58,43.73,21.66,66,30.45,7.37,2.91,15,5.92,22.42,9a651.18,651.18,0,0,1,94.49,48.8c19.88,12.42,39.37,26.81,48,47.84q0.43,1.05.83,2.13c4.7,12.8,3.22,28.78-3.77,40.71-5.39,9.2-13.5,15.1-22.86,16.61l-0.31-1.89c8.77-1.41,16.41-7,21.5-15.69,6.71-11.46,8.13-26.8,3.62-39.08-8-21.7-27.78-36.34-48-49a649.3,649.3,0,0,0-94.22-48.66c-7.41-3.08-15-6.09-22.39-9-22.32-8.82-45.41-17.94-66.27-30.6C2887.81,2250.43,2867.57,2228.38,2857.76,2204.47Z" transform="translate(-71.62 -78.02)"/><path class="cls-53" d="M2839.59,2236.38a57.3,57.3,0,0,1-4.35-26.47l1.91,0.15c-2.68,34.07,29.44,60.39,43.37,70.12,15.63,10.91,33,20.06,49.73,28.91,27.71,14.62,56.37,29.75,77.79,53.17,11,12,18,24.24,20.82,36.42,3.51,15,.48,30.15-8.11,40.49l-1.47-1.23c8.21-9.88,11.09-24.4,7.71-38.83-2.77-11.82-9.62-23.81-20.36-35.56-21.2-23.18-49.7-38.22-77.28-52.77-16.82-8.88-34.21-18.06-49.93-29C2866.75,2272.88,2848.09,2257.11,2839.59,2236.38Z" transform="translate(-71.62 -78.02)"/></g></g></svg>