<svg xmlns="http://www.w3.org/2000/svg" xmlns:xlink="http://www.w3.org/1999/xlink" viewBox="0 0 3592.21 3582.43"><defs><style>.cls-1{fill:none;}.cls-2{isolation:isolate;}.cls-3{fill:#f4f7fa;}.cls-4{fill:url(#linear-gradient);}.cls-5{fill:url(#linear-gradient-2);}.cls-6{fill:url(#linear-gradient-3);}.cls-7{fill:url(#linear-gradient-4);}.cls-8{fill:url(#linear-gradient-5);}.cls-9{fill:url(#linear-gradient-6);}.cls-10{fill:url(#linear-gradient-7);}.cls-11{fill:url(#linear-gradient-8);}.cls-12{fill:url(#linear-gradient-9);}.cls-13{fill:url(#linear-gradient-10);}.cls-14{fill:url(#linear-gradient-11);}.cls-15,.cls-36,.cls-40,.cls-43,.cls-91{fill:#fff;}.cls-15,.cls-42{opacity:0.5;}.cls-15,.cls-36,.cls-40,.cls-42,.cls-47{mix-blend-mode:soft-light;}.cls-16,.cls-26,.cls-31,.cls-79,.cls-85,.cls-87,.cls-90{opacity:0.3;mix-blend-mode:multiply;}.cls-16{fill:url(#linear-gradient-12);}.cls-17{fill:url(#linear-gradient-13);}.cls-18{fill:url(#linear-gradient-14);}.cls-19{fill:url(#linear-gradient-15);}.cls-20{fill:url(#linear-gradient-16);}.cls-21{fill:url(#linear-gradient-17);}.cls-22{fill:url(#linear-gradient-18);}.cls-23{fill:url(#linear-gradient-19);}.cls-24{fill:url(#linear-gradient-20);}.cls-25{fill:url(#linear-gradient-21);}.cls-26{fill:url(#linear-gradient-22);}.cls-27{fill:url(#linear-gradient-23);}.cls-28{fill:url(#linear-gradient-24);}.cls-29{fill:url(#linear-gradient-25);}.cls-30{fill:url(#linear-gradient-26);}.cls-31{fill:url(#linear-gradient-27);}.cls-32{fill:url(#linear-gradient-28);}.cls-33{fill:url(#linear-gradient-29);}.cls-34{fill:url(#linear-gradient-30);}.cls-35{fill:url(#linear-gradient-31);}.cls-37{fill:url(#linear-gradient-32);}.cls-38{fill:url(#linear-gradient-33);}.cls-39{fill:url(#linear-gradient-34);}.cls-40,.cls-47{opacity:0.9;}.cls-41{clip-path:url(#clip-path);}.cls-44{fill:url(#linear-gradient-35);}.cls-45{fill:url(#linear-gradient-36);}.cls-46{fill:url(#linear-gradient-37);}.cls-48{fill:url(#linear-gradient-38);}.cls-49{fill:url(#linear-gradient-39);}.cls-50{fill:url(#linear-gradient-40);}.cls-51{fill:url(#linear-gradient-41);}.cls-52{fill:url(#linear-gradient-42);}.cls-53{fill:url(#linear-gradient-43);}.cls-54{fill:url(#linear-gradient-44);}.cls-55,.cls-90{fill:#d8dee8;}.cls-56{fill:url(#linear-gradient-45);}.cls-57{fill:url(#linear-gradient-46);}.cls-58{fill:url(#linear-gradient-47);}.cls-59{fill:url(#linear-gradient-48);}.cls-60{fill:url(#linear-gradient-49);}.cls-61{fill:url(#linear-gradient-50);}.cls-62{fill:url(#linear-gradient-51);}.cls-63{fill:url(#linear-gradient-52);}.cls-64{fill:url(#linear-gradient-53);}.cls-65{fill:url(#linear-gradient-54);}.cls-66{fill:url(#linear-gradient-55);}.cls-67{fill:url(#linear-gradient-56);}.cls-68{fill:url(#linear-gradient-57);}.cls-69{fill:url(#linear-gradient-58);}.cls-70{fill:url(#linear-gradient-59);}.cls-71{fill:url(#linear-gradient-60);}.cls-72{fill:url(#linear-gradient-61);}.cls-73{fill:url(#linear-gradient-62);}.cls-74{fill:url(#linear-gradient-63);}.cls-75{fill:url(#linear-gradient-64);}.cls-76{fill:url(#linear-gradient-65);}.cls-77{fill:url(#linear-gradient-66);}.cls-78{fill:url(#linear-gradient-67);}.cls-79{fill:url(#linear-gradient-68);}.cls-80{fill:url(#linear-gradient-69);}.cls-81{fill:url(#linear-gradient-70);}.cls-82{fill:url(#linear-gradient-71);}.cls-83{fill:url(#linear-gradient-72);}.cls-84{fill:url(#linear-gradient-73);}.cls-85{fill:url(#linear-gradient-74);}.cls-86{fill:url(#linear-gradient-75);}.cls-87{fill:url(#linear-gradient-76);}.cls-88{fill:url(#linear-gradient-77);}.cls-89{fill:url(#linear-gradient-78);}.cls-91{opacity:0.56;}.cls-92{fill:url(#linear-gradient-79);}.cls-93{fill:url(#linear-gradient-80);}.cls-94{fill:url(#linear-gradient-81);}.cls-95{fill:url(#linear-gradient-82);}</style><linearGradient id="linear-gradient" x1="728.69" y1="3190.72" x2="927.8" y2="2737.83" gradientTransform="translate(12.54)" gradientUnits="userSpaceOnUse"><stop offset="0" stop-color="#aa80f9"/><stop offset="1" stop-color="#6165d7"/></linearGradient><linearGradient id="linear-gradient-2" x1="-1789.92" y1="2983.57" x2="125.32" y2="2983.57" gradientTransform="matrix(-1, 0, 0, 1, 1404.41, 0)" gradientUnits="userSpaceOnUse"><stop offset="0" stop-color="#d8dee8"/><stop offset="1" stop-color="#fff"/></linearGradient><linearGradient id="linear-gradient-3" x1="1222.93" y1="2984.36" x2="3217.47" y2="2984.36" xlink:href="#linear-gradient"/><linearGradient id="linear-gradient-4" x1="1023.93" y1="1933.13" x2="664.91" y2="3142.47" gradientTransform="translate(12.54)" gradientUnits="userSpaceOnUse"><stop offset="0" stop-color="#ffc444"/><stop offset="1" stop-color="#f36f56"/></linearGradient><linearGradient id="linear-gradient-5" x1="-1789.92" y1="2442.73" x2="125.32" y2="2442.73" xlink:href="#linear-gradient-2"/><linearGradient id="linear-gradient-6" x1="1222.93" y1="2446.37" x2="3217.47" y2="2446.37" xlink:href="#linear-gradient-4"/><linearGradient id="linear-gradient-7" x1="279.53" y1="1887.67" x2="1352.82" y2="1887.67" gradientTransform="translate(12.54)" gradientUnits="userSpaceOnUse"><stop offset="0" stop-color="#ff9085"/><stop offset="1" stop-color="#fb6fbb"/></linearGradient><linearGradient id="linear-gradient-8" x1="211.81" y1="1879.56" x2="685.57" y2="1884.74" xlink:href="#linear-gradient"/><linearGradient id="linear-gradient-9" x1="-1789.92" y1="1890.06" x2="125.32" y2="1890.06" gradientTransform="matrix(-1, 0, 0, 1, 1332.61, -64)" xlink:href="#linear-gradient-2"/><linearGradient id="linear-gradient-10" x1="1222.93" y1="1692.95" x2="3217.47" y2="1692.95" xlink:href="#linear-gradient"/><linearGradient id="linear-gradient-11" x1="1222.93" y1="2088.54" x2="3217.47" y2="2088.54" xlink:href="#linear-gradient"/><linearGradient id="linear-gradient-12" x1="592.73" y1="2146.31" x2="514.57" y2="2030.6" xlink:href="#linear-gradient-4"/><linearGradient id="linear-gradient-13" x1="571.14" y1="2114.35" x2="456.96" y2="1945.3" xlink:href="#linear-gradient"/><linearGradient id="linear-gradient-14" x1="716" y1="381.05" x2="1944.18" y2="1215.28" gradientTransform="translate(93.63)" gradientUnits="userSpaceOnUse"><stop offset="0" stop-color="#311944"/><stop offset="1" stop-color="#6b3976"/></linearGradient><linearGradient id="linear-gradient-15" x1="596.36" y1="1022.67" x2="978.75" y2="1022.67" gradientUnits="userSpaceOnUse"><stop offset="0" stop-color="#e38ddd"/><stop offset="1" stop-color="#9571f6"/></linearGradient><linearGradient id="linear-gradient-16" x1="-219.93" y1="2369.91" x2="-39.44" y2="2369.91" gradientTransform="translate(-842.42 279.31) rotate(-33.79)" xlink:href="#linear-gradient-14"/><linearGradient id="linear-gradient-17" x1="248.55" y1="2411.07" x2="543.09" y2="1527.46" gradientTransform="translate(93.63)" xlink:href="#linear-gradient-4"/><linearGradient id="linear-gradient-18" x1="199.17" y1="2005.31" x2="300.32" y2="2005.31" xlink:href="#linear-gradient-14"/><linearGradient id="linear-gradient-19" x1="140.54" y1="2283.06" x2="305.72" y2="1787.53" gradientTransform="translate(93.63)" xlink:href="#linear-gradient-4"/><linearGradient id="linear-gradient-20" x1="344.07" y1="1448.2" x2="467.27" y2="2160.47" gradientTransform="translate(93.63)" gradientUnits="userSpaceOnUse"><stop offset="0" stop-color="#40447e"/><stop offset="1" stop-color="#3c3b6b"/></linearGradient><linearGradient id="linear-gradient-21" x1="518.06" y1="2292.34" x2="693.24" y2="1737.93" xlink:href="#linear-gradient-20"/><linearGradient id="linear-gradient-22" x1="517.28" y1="2292.1" x2="692.47" y2="1737.68" xlink:href="#linear-gradient-20"/><linearGradient id="linear-gradient-23" x1="764.58" y1="1376.31" x2="887.5" y2="2086.94" xlink:href="#linear-gradient-20"/><linearGradient id="linear-gradient-24" x1="997.78" y1="1036.06" x2="1149.15" y2="1728.03" xlink:href="#linear-gradient-15"/><linearGradient id="linear-gradient-25" x1="981.85" y1="997.28" x2="994.4" y2="662.91" gradientTransform="matrix(-0.98, 0.18, 0.18, 0.98, 1842.06, -244.24)" xlink:href="#linear-gradient-4"/><linearGradient id="linear-gradient-26" x1="977.93" y1="702.1" x2="972.56" y2="1135.01" gradientTransform="matrix(-0.98, 0.18, 0.18, 0.98, 1842.06, -244.24)" xlink:href="#linear-gradient-4"/><linearGradient id="linear-gradient-27" x1="711.92" y1="1353.44" x2="1376.22" y2="1353.44" gradientTransform="matrix(1, 0, 0, 1, 0, 0)" xlink:href="#linear-gradient"/><linearGradient id="linear-gradient-28" x1="1230.36" y1="985.18" x2="1381.73" y2="1677.15" xlink:href="#linear-gradient-15"/><linearGradient id="linear-gradient-29" x1="764.66" y1="1282.56" x2="407.35" y2="659.17" gradientTransform="matrix(1, 0, 0, 1, 0, 0)" xlink:href="#linear-gradient-14"/><linearGradient id="linear-gradient-30" x1="640" y1="1462.19" x2="854.11" y2="1093.14" gradientTransform="matrix(1, 0, 0, 1, 0, 0)" xlink:href="#linear-gradient-14"/><linearGradient id="linear-gradient-31" x1="-622.65" y1="1272.93" x2="-781.29" y2="1422.42" gradientTransform="matrix(-1, 0, 0, 1, 323.91, 0)" xlink:href="#linear-gradient-4"/><linearGradient id="linear-gradient-32" x1="2159.36" y1="2684.81" x2="1986.36" y2="6438.35" gradientUnits="userSpaceOnUse"><stop offset="0" stop-color="#26264f"/><stop offset="1" stop-color="#444b8c"/></linearGradient><linearGradient id="linear-gradient-33" x1="2333.69" y1="603.73" x2="2160.69" y2="4357.27" gradientUnits="userSpaceOnUse"><stop offset="0" stop-color="#444b8c"/><stop offset="1" stop-color="#26264f"/></linearGradient><linearGradient id="linear-gradient-34" x1="2334.48" y1="828.63" x2="2187.69" y2="4013.63" gradientUnits="userSpaceOnUse"><stop offset="0.49" stop-color="#ebeff2"/><stop offset="1" stop-color="#fff"/></linearGradient><clipPath id="clip-path" transform="translate(-71.79 -64)"><path class="cls-1" d="M3176.57,1106l-7.5,1917.16c-0.08,19.78-16.4,37.16-36.52,38.86L1429.48,3206.13c-23.71,2-42.94-13.78-42.93-35.3L1387,1084a37.15,37.15,0,0,1,14.93-29.47,44.75,44.75,0,0,1,28.22-9.2l1710.06,24.11C3160.39,1069.69,3176.65,1086.06,3176.57,1106Z"/></clipPath><linearGradient id="linear-gradient-35" x1="1873.25" y1="1560.37" x2="2081.24" y2="1560.37" gradientTransform="matrix(1, 0, 0, 1, 0, 0)" xlink:href="#linear-gradient-7"/><linearGradient id="linear-gradient-36" x1="1767.35" y1="1562.16" x2="1874.48" y2="1562.16" gradientTransform="matrix(1, 0, 0, 1, 0, 0)" xlink:href="#linear-gradient-7"/><linearGradient id="linear-gradient-37" x1="1761.03" y1="544.35" x2="1676.72" y2="2841.67" gradientTransform="matrix(1, 0, 0, 1, 0, 0)" xlink:href="#linear-gradient"/><linearGradient id="linear-gradient-38" x1="1528.52" y1="834.72" x2="1187.48" y2="4650.06" gradientTransform="matrix(1, 0, 0, 1, 0, 0)" xlink:href="#linear-gradient-4"/><linearGradient id="linear-gradient-39" x1="1248.29" y1="1567.3" x2="1355.42" y2="1567.3" gradientTransform="matrix(1, 0, 0, 1, 0, 0)" xlink:href="#linear-gradient-4"/><linearGradient id="linear-gradient-40" x1="2967.62" y1="1152.13" x2="2826.39" y2="2449.73" xlink:href="#linear-gradient-15"/><linearGradient id="linear-gradient-41" x1="2724.57" y1="1552.14" x2="2831.7" y2="1552.14" xlink:href="#linear-gradient-15"/><linearGradient id="linear-gradient-42" x1="2729.25" y1="579.46" x2="2648.8" y2="2771.79" gradientTransform="matrix(1, 0, 0, 1, 0, 0)" xlink:href="#linear-gradient-20"/><linearGradient id="linear-gradient-43" x1="2518.49" y1="856.94" x2="2193.28" y2="4495.34" gradientTransform="matrix(1, 0, 0, 1, 0, 0)" xlink:href="#linear-gradient"/><linearGradient id="linear-gradient-44" x1="2251.97" y1="1554.53" x2="2359.1" y2="1554.53" gradientTransform="matrix(1, 0, 0, 1, 0, 0)" xlink:href="#linear-gradient"/><linearGradient id="linear-gradient-45" x1="2989.12" y1="1868.31" x2="2835.93" y2="3470.2" gradientTransform="matrix(1, 0, 0, 1, 0, 0)" xlink:href="#linear-gradient-4"/><linearGradient id="linear-gradient-46" x1="2681.8" y1="2620.88" x2="2828.42" y2="2620.88" gradientTransform="matrix(1, 0, 0, 1, 0, 0)" xlink:href="#linear-gradient-4"/><linearGradient id="linear-gradient-47" x1="2726.47" y1="1613.11" x2="2645.06" y2="3831.37" gradientTransform="matrix(1, 0, 0, 1, 0, 0)" xlink:href="#linear-gradient"/><linearGradient id="linear-gradient-48" x1="2516.15" y1="1910.16" x2="2188.88" y2="5571.55" gradientTransform="matrix(1, 0, 0, 1, 0, 0)" xlink:href="#linear-gradient-7"/><linearGradient id="linear-gradient-49" x1="2209.76" y1="2639.86" x2="2356.38" y2="2639.86" gradientTransform="matrix(1, 0, 0, 1, 0, 0)" xlink:href="#linear-gradient-7"/><linearGradient id="linear-gradient-50" x1="2240.59" y1="2161.86" x2="2181.65" y2="3326.63" gradientTransform="matrix(1, 0, 0, 1, 0, 0)" xlink:href="#linear-gradient"/><linearGradient id="linear-gradient-51" x1="2046.61" y1="1893.42" x2="1886.09" y2="3571.88" gradientTransform="matrix(1, 0, 0, 1, 0, 0)" xlink:href="#linear-gradient-4"/><linearGradient id="linear-gradient-52" x1="1723.34" y1="2659.5" x2="1874.05" y2="2659.5" gradientTransform="matrix(1, 0, 0, 1, 0, 0)" xlink:href="#linear-gradient-4"/><linearGradient id="linear-gradient-53" x1="1760.33" y1="1626.07" x2="1674.98" y2="3951.82" gradientTransform="matrix(1, 0, 0, 1, 0, 0)" xlink:href="#linear-gradient-20"/><linearGradient id="linear-gradient-54" x1="1528.36" y1="1937.91" x2="1185.07" y2="5778.46" xlink:href="#linear-gradient-15"/><linearGradient id="linear-gradient-55" x1="1273.29" y1="2680.93" x2="1355.95" y2="2680.93" xlink:href="#linear-gradient-15"/><linearGradient id="linear-gradient-56" x1="768.84" y1="3056.91" x2="1789.96" y2="3056.91" gradientTransform="matrix(1, 0, 0, 1, 0, 0)" xlink:href="#linear-gradient-4"/><linearGradient id="linear-gradient-57" x1="953.7" y1="3525.74" x2="1036.94" y2="3336.42" gradientTransform="matrix(1, 0, 0, 1, 0, 0)" xlink:href="#linear-gradient"/><linearGradient id="linear-gradient-58" x1="1170.56" y1="3417.14" x2="1862.42" y2="3417.14" gradientTransform="matrix(1, 0, 0, 1, 0, 0)" xlink:href="#linear-gradient-2"/><linearGradient id="linear-gradient-59" x1="1153.87" y1="3417.47" x2="1874.59" y2="3417.47" gradientTransform="matrix(1, 0, 0, 1, 0, 0)" xlink:href="#linear-gradient"/><linearGradient id="linear-gradient-60" x1="1074.54" y1="3015.24" x2="928.61" y2="3506.8" gradientTransform="matrix(1, 0, 0, 1, 0, 0)" xlink:href="#linear-gradient-4"/><linearGradient id="linear-gradient-61" x1="1170.56" y1="3210.35" x2="1862.42" y2="3210.35" gradientTransform="matrix(1, 0, 0, 1, 0, 0)" xlink:href="#linear-gradient-2"/><linearGradient id="linear-gradient-62" x1="1153.87" y1="3212.48" x2="1874.59" y2="3212.48" gradientTransform="matrix(1, 0, 0, 1, 0, 0)" xlink:href="#linear-gradient-4"/><linearGradient id="linear-gradient-63" x1="3563.38" y1="3295.37" x2="3587.8" y2="3606.21" gradientTransform="translate(-794.8 3.37) rotate(-0.14)" gradientUnits="userSpaceOnUse"><stop offset="0" stop-color="#311944"/><stop offset="1" stop-color="#a03976"/></linearGradient><linearGradient id="linear-gradient-64" x1="3626.43" y1="3468.42" x2="3621.99" y2="3146.49" gradientTransform="translate(-794.8 3.37) rotate(-0.14)" xlink:href="#linear-gradient-4"/><linearGradient id="linear-gradient-65" x1="4024.91" y1="3259.11" x2="4049.34" y2="3569.94" xlink:href="#linear-gradient-63"/><linearGradient id="linear-gradient-66" x1="4049.41" y1="3462.59" x2="4044.96" y2="3140.65" gradientTransform="translate(-794.8 3.37) rotate(-0.14)" xlink:href="#linear-gradient-4"/><linearGradient id="linear-gradient-67" x1="3549.6" y1="2946.9" x2="3787.63" y2="2946.9" gradientTransform="translate(-794.8 3.37) rotate(-0.14)" gradientUnits="userSpaceOnUse"><stop offset="0" stop-color="#444b8c"/><stop offset="1" stop-color="#3e4177"/></linearGradient><linearGradient id="linear-gradient-68" x1="3549.6" y1="2946.91" x2="3787.63" y2="2946.91" xlink:href="#linear-gradient-67"/><linearGradient id="linear-gradient-69" x1="3615.68" y1="2923.44" x2="4094.86" y2="2923.44" xlink:href="#linear-gradient-67"/><linearGradient id="linear-gradient-70" x1="2836.14" y1="1944.78" x2="3464.74" y2="3360.94" gradientTransform="matrix(1, 0, 0, 1, 0, 0)" xlink:href="#linear-gradient-4"/><linearGradient id="linear-gradient-71" x1="3098.64" y1="1947" x2="3134.77" y2="1790.44" gradientUnits="userSpaceOnUse"><stop offset="0" stop-color="#ab316d"/><stop offset="1" stop-color="#792d3d"/></linearGradient><linearGradient id="linear-gradient-72" x1="4985.88" y1="2601.15" x2="4904.21" y2="2393.72" gradientTransform="translate(-1726 -907.3) rotate(2.72)" xlink:href="#linear-gradient-67"/><linearGradient id="linear-gradient-73" x1="3063.28" y1="1836.59" x2="3113.86" y2="1707.73" xlink:href="#linear-gradient-71"/><linearGradient id="linear-gradient-74" x1="2488.56" y1="2292.38" x2="2874.05" y2="2292.38" gradientTransform="matrix(1, 0, 0, 1, 0, 0)" xlink:href="#linear-gradient"/><linearGradient id="linear-gradient-75" x1="3181.81" y1="1791.34" x2="3810.41" y2="3207.5" gradientTransform="matrix(1, 0, 0, 1, 0, 0)" xlink:href="#linear-gradient-4"/><linearGradient id="linear-gradient-76" x1="2733.67" y1="2414.65" x2="3524.56" y2="2414.65" gradientTransform="matrix(1, 0, 0, 1, 0, 0)" xlink:href="#linear-gradient-4"/><linearGradient id="linear-gradient-77" x1="2332.65" y1="2472.74" x2="3314.43" y2="2472.74" xlink:href="#linear-gradient-33"/><linearGradient id="linear-gradient-78" x1="1427.18" y1="2162.83" x2="2440.2" y2="2162.83" xlink:href="#linear-gradient-33"/><linearGradient id="linear-gradient-79" x1="-6885.55" y1="3875.45" x2="-7395.62" y2="3304.34" gradientTransform="matrix(-0.87, 0.49, 0.49, 0.87, -6104.42, 2747.67)" xlink:href="#linear-gradient-33"/><linearGradient id="linear-gradient-80" x1="-7635.36" y1="3041.6" x2="-6943.58" y2="3803.14" gradientTransform="matrix(-0.87, 0.49, 0.49, 0.87, -6104.42, 2747.67)" xlink:href="#linear-gradient-33"/><linearGradient id="linear-gradient-81" x1="3264" y1="2590.92" x2="3454.28" y2="2490.97" xlink:href="#linear-gradient-71"/><linearGradient id="linear-gradient-82" x1="6533.25" y1="883.39" x2="6637.85" y2="883.39" gradientTransform="translate(-2728.72 -1761.01) rotate(31.21)" xlink:href="#linear-gradient-71"/></defs><title>search</title><g class="cls-2"><g id="Illustration"><path class="cls-3" d="M947.74,272.19C825.09,443.88,963.81,725.8,783.16,854,607.31,978.79,395.1,769,229.48,876.24c-245.69,159.13-208.92,899.5,143,1363,105.82,139.38,194.9,194.11,232.95,350.89,81.72,336.63-220,533.2-164.72,699.85,124.44,375.23,2095.45,709.74,2899.45-405.57,375.5-520.89,438.83-1278.11,114.32-1857.14C2868.06-19.06,1222.93-113.07,947.74,272.19Z" transform="translate(-71.79 -64)"/><path class="cls-4" d="M1416.61,3243.07L433.07,2940.52c-95.81-29.47-169.86-126.58-169.86-217.94v-1c0-91.36,74-150.55,169.86-131l1057.25,202.73Z" transform="translate(-71.79 -64)"/><path class="cls-5" d="M3194.33,3119.81l-1728.8,104.37c-102.58,6.19-186.44-66.55-186.44-162.53v-65.11c0-96,83.86-177.3,186.44-181.59l1728.8-72.34v377.21Z" transform="translate(-71.79 -64)"/><path class="cls-6" d="M3210.17,3139L1479.3,3245.16c-133.78,8.21-243.83-87.06-243.83-212.46v-1.38c0-125.4,110-231.93,243.83-237.4l1730.87-70.82a19,19,0,0,1,19.84,19.27,21,21,0,0,1-19.84,20.93L1479.3,2837.54c-107.71,4.62-196.12,90.47-196.12,191.34v1.38c0,100.87,88.41,177.68,196.12,171.28l1730.87-102.78a18.6,18.6,0,0,1,19.84,18.9A21.51,21.51,0,0,1,3210.17,3139Z" transform="translate(-71.79 -64)"/><path class="cls-7" d="M1459.25,2793.34L433.07,2590.61c-95.81-19.59-169.86-146.33-169.86-283.51v-1.51c0-137.18,74-245.11,169.86-240.37l1090.7,54Z" transform="translate(-71.79 -64)"/><path class="cls-8" d="M3194.33,2693.53l-1636.47,64.53c-153.09,6-278.77-105.84-278.77-250v-97.77c0-144.12,125.68-262.41,278.77-264.18l1636.47-19v566.38Z" transform="translate(-71.79 -64)"/><path class="cls-9" d="M3210.17,2723.09L1479.3,2793.92c-133.78,5.47-243.83-143.21-243.83-331.5v-2.07c0-188.29,110-342.61,243.83-344l1730.87-17.7c11-.11,19.84,13.3,19.84,30s-8.88,30.27-19.84,30.42L1479.3,2181.87c-107.71,1.42-196.12,125.8-196.12,277.25v2.07c0,151.45,88.41,271.31,196.12,267.22l1730.87-65.69c11-.42,19.84,12.75,19.84,29.4S3221.13,2722.64,3210.17,2723.09Z" transform="translate(-71.79 -64)"/><path class="cls-10" d="M1365.37,2089.83l-942.47-42c-73.53-3.27-130.82-63.13-130.82-133.82v-48c0-70.69,57.3-130.8,130.82-134.4l942.47-46.17v404.32Z" transform="translate(-71.79 -64)"/><path class="cls-11" d="M1257.32,2117.66l-824.25-52.43c-95.81-4.74-169.86-82.74-169.86-174.1v-1c0-91.36,74-169.66,169.86-174.8l821.66-51.24c15.79-.85,161.87,8.23,161.87,20.28s-122.79,23.57-138.57,24.26l-845,40.53c-77.66,3.39-138.26,66.54-138.26,140.9v1c0,74.36,60.6,137.26,138.26,140.33l845,42.25c15.79,0.62,138.57,6.41,138.57,18.46S1273.11,2118.44,1257.32,2117.66Z" transform="translate(-71.79 -64)"/><polygon class="cls-12" points="3122.53 2014.72 1207.29 2032.4 1207.29 1619.71 3122.53 1637.51 3122.53 2014.72"/><path class="cls-13" d="M3210.17,1723l-1950.82-16.08c-13.18-.11-23.88-10.07-23.88-22.25s10.7-21.94,23.88-21.81l1950.82,19.94A20.21,20.21,0,0,1,3230,1703.1,19.76,19.76,0,0,1,3210.17,1723Z" transform="translate(-71.79 -64)"/><path class="cls-14" d="M3210.17,2098.67l-1950.82,19.94c-13.18.13-23.88-9.63-23.88-21.81s10.7-22.14,23.88-22.25l1950.82-16.09a19.76,19.76,0,0,1,19.84,19.92A20.21,20.21,0,0,1,3210.17,2098.67Z" transform="translate(-71.79 -64)"/><path class="cls-15" d="M1134.07,2641l-220.45-44.09c-51-138-47.22-263.38,0-412.56l220.45,18.9C1088.64,2361.34,1095.51,2505.41,1134.07,2641Z" transform="translate(-71.79 -64)"/><path class="cls-16" d="M693.16,2080.4l-6.3-229.9L468,2067.81s-111.8,50.39-92.9,154.32l129.12-37.79,119.67,50.39S626.94,2122.71,693.16,2080.4Z" transform="translate(-71.79 -64)"/><path class="cls-17" d="M444.37,1856.8l242.5-6.3s-116.52,78.73-63,384.22c0,0-103.93-40.94-148-97.63l-100.78,85S315.25,1960.73,444.37,1856.8Z" transform="translate(-71.79 -64)"/><path class="cls-18" d="M877.11,824.8c-23.1-15-2.05-58.56-.81-152.16,1.53-114.7-28.94-136.08-4.47-181.08,29.92-55,105.24-77.8,155.14-78.87,11-.24,13.58-6.25,105.78,17.63,166.11,43,207.7-3.1,282.08,43,71.87,44.51,40.4,93.25,110.19,145.45,113.13,84.61,232.09-6.86,312.93,63.91,76.47,66.94,78.24,237.49-2.2,330.57-91.19,105.51-255.62,73.81-365.82,52.89-23.19-4.4-140.31-29-262.25-119A698.3,698.3,0,0,1,1064.43,805c-6.92-7.78-17.71-17.21-32-18.73-17.1-1.83-30.84,8.64-37.46,13.22C960.24,823.53,899.8,839.51,877.11,824.8Z" transform="translate(-71.79 -64)"/><path class="cls-19" d="M969.94,761.93c-29.71-27.06-135.72,25.1-206,94.33-82.54,81.34-76.19,147.29-148.23,248.33-35.81,50.23-27,236.16,69.3,173.26,66.92-43.7,101.35-101.6,167.48-215.61C918.88,947.82,1007.08,795.77,969.94,761.93Z" transform="translate(-71.79 -64)"/><path class="cls-20" d="M321.11,2352.13l33.78-71.77a62.1,62.1,0,0,1,21.65-25.16l16.73-11.2s40-1.06,46.21,24.07c1.34,31.92-60.69,103.23-99.91,131.55-6.51,4.7-15.8,11-21.44,7.74C308.57,2401.9,315.27,2372.55,321.11,2352.13Z" transform="translate(-71.79 -64)"/><path class="cls-21" d="M384.59,2205c5.32,30.78-1.41,46.83-8.66,55.83-5.1,6.33-46.53,74.64-29.52,85.67,7.68,5,60.31-60.38,65.42-70.39,4.62-9.07,7.63-6.93,7.9-31.64a128.67,128.67,0,0,1,6.08-37.55Z" transform="translate(-71.79 -64)"/><path class="cls-22" d="M324.77,1961s-37.39,44.61-31.3,93.52,71.57-22.6,80.69-46.76,19.8-58.59,19.8-58.59S348,1920.6,324.77,1961Z" transform="translate(-71.79 -64)"/><path class="cls-23" d="M339,1891.19s10.14,52-9.2,79.41c-9.64,13.66-22.63,25.25-18.81,36.37,2.56,7.45,12.29,12.81,20.52,12,15.77-1.62,24.52-25.8,30.68-42.85,9.11-25.19,14.19-79.09,14.19-79.09Z" transform="translate(-71.79 -64)"/><path class="cls-24" d="M368.83,1935l-34.5-12.56c-17.94-41-39.83-108.27-32.52-190.07,18.81-210.36,213.36-321.83,235-333.76,53,26.6,106.7,64.12,108.65,111.42,2.44,59.38-78.45,90.76-154.48,177.59C445.31,1739.73,396.54,1817.39,368.83,1935Z" transform="translate(-71.79 -64)"/><path class="cls-25" d="M381.22,2229c-38-148.41-28.29-269.52-17.33-339.29,16.57-105.45,50.26-319.95,193.47-399.93,31.27-17.47,76-33.11,130.47-81.67a462.06,462.06,0,0,0,91.88-113.24c191.52-56.18,368.18-33.41,446.13,69.3,9,11.87,31.56,37.61,35.92,75.57,9.84,85.65-74.31,188.76-168.75,210.3-120,27.37-68.85-9.4-175.18,31.6-29.74,11.47-194.05-.89-244.49,55.95-64.16,72.31-81.93,93.35-95.58,120.05-40.63,79.5-71.44,138.19-75.94,214.26-1,17.72-1.67,53.52-22.43,92.13-15.93,29.64-37.53,49.4-53.59,61.61Z" transform="translate(-71.79 -64)"/><path class="cls-26" d="M1261.76,1439.78c-4.36-38-26.91-63.7-35.92-75.57-78-102.72-254.61-125.49-446.13-69.3a462.06,462.06,0,0,1-91.87,113.24c-54.49,48.56-99.2,64.2-130.47,81.67-87.45,48.84-134,147.83-160.84,241.53,39.79-61.69,73.84-78.08,100.2-78.38,37.73-.42,54.58,31.83,99.62,27.43,43.06-4.21,50.48-40.05,98.18-49.09,41.08-7.78,71.47,14.72,103.2,29.6,131.86,61.82,289-20.6,296.15-23.91C1171.4,1601.35,1272.1,1529.74,1261.76,1439.78Z" transform="translate(-71.79 -64)"/><path class="cls-27" d="M480.46,1556.2a630.84,630.84,0,0,1,95.33,2.16c191.1,18.88,243.78,113.41,401.72,136.48,37.36,5.46,203.71,29.75,275.76-66.41,51.73-69,43.9-188-12.68-234.8-23.94-19.8-47.65-19.25-201-17.87-57.75.52-115.51,0.71-173.25,1.45-244.46,3.12-291.21-13.81-335.69,26.62C509.9,1422.68,479.56,1463.2,480.46,1556.2Z" transform="translate(-71.79 -64)"/><path class="cls-28" d="M996.54,771.85s193-56.27,277.94,39.93c15.6,17.66,27.94,40.89,36.91,85.72,45.74,228.46-127.27,365.69-59.11,486.21,27.07,47.86,74.74,62.28,108.62,148.3,5.74,14.56,26.48,67.23,7.45,83.83-16.77,14.62-44.34-16.24-93.32-10.28-51.87,6.31-64,46.15-98.88,40.35-22.75-3.78-32.56-23.21-66.08-71.64-48.53-70.11-72.79-105.17-90.18-117.46-68.62-48.5-121.67,14.75-199.92-33.28-28.33-17.39-133.31-152.54-102.42-115.42h0c73.51-91.71,90.59-167.36,92.35-220,1.93-57.67-14.7-83.88,0-152.06,0,0,16.4-76.07,75.57-141.39C894,785.32,904.08,775.55,996.54,771.85Z" transform="translate(-71.79 -64)"/><path class="cls-29" d="M1058.49,646.7c-2.61,12.21-15.92,77.72,10.89,94.58,5.81,3.66,17,5.75,39.3,9.93,14.62,2.74,26.89,4.42,35.54,5.45-1.25,11-5,28.87-17.63,45.13-35.54,45.59-106.8,33.8-117,31.94-35.84-6.53-71.11-17.6-79.63-24.37-13-10.31-23.17-18-29.2-25.89,13.87-6.7,41.87-24.38,60.67-30.17a348.54,348.54,0,0,1,39.22-9.62q3-19,5.91-38Z" transform="translate(-71.79 -64)"/><path class="cls-30" d="M1059.75,679.35s-4.84,48-51.51,56.47c-41.79,7.58-73.24-93.4-51.86-119.52,7.13-8.71,24.74-17,40-16.56,10.74,0.31,47,14.12,52.06,50.41,7.22-7.61,16.22-9.8,20.66-6.61,5.63,4,2.61,15.79,1.93,18.46A33.84,33.84,0,0,1,1059.75,679.35Z" transform="translate(-71.79 -64)"/><path class="cls-31" d="M717.54,1308.12c8.84-11,16.83-21.82,24.11-32.38,40.54-13.58,75.62-18.64,103.91-20,63.82-3.1,98.77,11.92,142.21-14.22,49.31-29.67,40.58-70.87,88.17-93.86,50.08-24.2,85.5,3.15,133.68-5.69,29.1-5.34,64.54-24.79,100.71-81.56-27.7,136.66-108.25,234.54-58,323.31,27.07,47.86,74.74,62.28,108.62,148.3,5.74,14.56,26.48,67.23,7.45,83.83-16.77,14.62-44.34-16.24-93.32-10.28-51.87,6.31-64,46.15-98.88,40.35-22.75-3.78-32.56-23.21-66.08-71.64-48.53-70.11-72.79-105.17-90.18-117.46-68.62-48.5-121.67,14.75-199.92-33.28C791.63,1406.14,686.66,1271,717.54,1308.12Z" transform="translate(-71.79 -64)"/><path class="cls-32" d="M1060.43,1317l-17-45c62.81-17.22,149.67-42.66,238.77-74.5,14-5,30.53-11.16,36-25.85,15.23-41.19-81.62-83.87-119.27-173.8-34.82-83.18-15.66-198.61,24.76-212.24,84.09-28.38,382.3,342.82,275.79,499.3C1439.18,1373.31,1253.57,1387.4,1060.43,1317Z" transform="translate(-71.79 -64)"/><path class="cls-33" d="M813.28,1319.15c-8.27-7.23-96-329.58-121.23-422.89A14.66,14.66,0,0,0,667.29,890l-92.7,96.77,93.79,388.41,48.5,23.44S823,1327.6,813.28,1319.15Z" transform="translate(-71.79 -64)"/><path class="cls-34" d="M1001.73,1336L921.27,980.68A36,36,0,0,0,880.93,953L612.85,992.55l99.07,406.06,257.34-18.82A36,36,0,0,0,1001.73,1336Z" transform="translate(-71.79 -64)"/><path class="cls-35" d="M1043.38,1272c-39.43-20.95-86.63.52-89.67,2a117.89,117.89,0,0,0-34,24.39c-1.44,2-18.54,25.66-12.31,33.26,5,6.08,24.34,1,47.58-13.42a180.53,180.53,0,0,1,41.63-1c31.91,2.94,46.53,13,58.12,4.32,8.48-6.37,11.37-19.84,8.32-29.85C1059.75,1280.84,1050.05,1275.5,1043.38,1272Z" transform="translate(-71.79 -64)"/><rect class="cls-36" x="694.25" y="1051.52" width="189.92" height="59.16" transform="translate(-212.5 54.35) rotate(-7.88)"/><path class="cls-37" d="M3181.12,956.44c0.15-37.56-30.41-68.74-68.39-69.62L1288,844.15c-45.36-1.06-82.26,31.53-82.26,72.8V3347.06c0,40.85,36.71,70.51,81.83,66.29L3103.45,3243.3c37.81-3.54,68.49-36.57,68.64-73.78Z" transform="translate(-71.79 -64)"/><path class="cls-38" d="M3259.7,952.87c0.15-37.56-30.41-68.74-68.39-69.62L1366.63,840.58c-45.36-1.06-82.26,31.53-82.26,72.8V3343.49c0,40.85,36.71,70.51,81.83,66.29L3182,3239.73c37.81-3.54,68.49-36.57,68.64-73.78Z" transform="translate(-71.79 -64)"/><path class="cls-39" d="M3176.57,1106l-7.5,1917.16c-0.08,19.78-16.4,37.16-36.52,38.86L1429.48,3206.13c-23.71,2-42.94-13.78-42.93-35.3L1387,1084a37.15,37.15,0,0,1,14.93-29.47,44.75,44.75,0,0,1,28.22-9.2l1710.06,24.11C3160.39,1069.69,3176.65,1086.06,3176.57,1106Z" transform="translate(-71.79 -64)"/><path class="cls-40" d="M3101.59,3064.64L1430.76,3206c-23.71,2-44.22-13.67-44.22-35.19L1387,1084c0-11.85,6.43-22.41,15.57-29.46,5.49,12.38,11.73,24.59,18.11,36.54,188,351.93,563.49,117,810.85,463.74C2425,1826,2274.71,2085.7,2493,2386.46c172.41,237.5,326.87,153.73,483.79,382.3C3037.18,2856.73,3076.4,2959.67,3101.59,3064.64Z" transform="translate(-71.79 -64)"/><g class="cls-41"><g class="cls-42"><polygon class="cls-43" points="2356.13 2281.61 2079.05 2294.48 2079.11 2263.64 2356.2 2251.17 2356.13 2281.61"/><polygon class="cls-43" points="2354.36 3024.4 2077.68 3047.09 2077.74 3016.35 2354.43 2994.06 2354.36 3024.4"/></g><polygon class="cls-44" points="2079.54 2027.08 1873.25 2034.06 1874.56 1086.67 2081.24 1088.85 2079.54 2027.08"/><polygon class="cls-36" points="2013.96 1850.33 1936.57 1852.29 1937.46 1267.54 2014.94 1267.7 2013.96 1850.33"/><polygon class="cls-45" points="1874.48 1086.67 1767.35 1142.73 1767.35 2037.64 1873.25 2034.06 1874.48 1086.67"/><polygon class="cls-46" points="1873.25 2034.06 1571.47 2044.27 1572.16 1143.43 1874.48 1145.78 1873.25 2034.06"/><g class="cls-47"><polygon class="cls-43" points="1874.34 1246.57 1572.08 1245.65 1572.11 1213.93 1874.38 1215.29 1874.34 1246.57"/><polygon class="cls-43" points="1874.27 1298.68 1572.04 1298.5 1572.07 1266.79 1874.31 1267.41 1874.27 1298.68"/></g><g class="cls-47"><polygon class="cls-43" points="1873.41 1916.28 1571.56 1924.82 1571.59 1893.19 1873.45 1885.09 1873.41 1916.28"/><polygon class="cls-43" points="1873.34 1968.25 1571.52 1977.53 1571.55 1945.91 1873.38 1937.07 1873.34 1968.25"/></g><polygon class="cls-48" points="1571.47 2044.27 1355.11 2051.59 1355.41 1081.21 1572.21 1083.49 1571.47 2044.27"/><polygon class="cls-15" points="1545.26 1206.75 1386.6 1205.99 1386.63 1138.44 1545.3 1139.69 1545.26 1206.75"/><polygon class="cls-49" points="1355.41 1081.21 1248.29 1137.27 1248.29 2053.38 1355.11 2051.59 1355.41 1081.21"/><polygon class="cls-50" points="3017.39 1995.35 2829.06 2001.72 2832.11 1096.74 3020.76 1098.72 3017.39 1995.35"/><polygon class="cls-36" points="2957.86 1826.35 2887.2 1828.15 2889.15 1269.5 2959.88 1269.64 2957.86 1826.35"/><polygon class="cls-51" points="2831.7 1096.74 2724.57 1150.15 2724.57 2007.54 2831.39 2001.72 2831.7 1096.74"/><polygon class="cls-52" points="2829.06 2001.72 2553.86 2011.04 2556.27 1151.06 2831.92 1153.19 2829.06 2001.72"/><g class="cls-47"><polygon class="cls-43" points="2831.6 1249.47 2556 1248.63 2556.08 1218.36 2831.7 1219.59 2831.6 1249.47"/><polygon class="cls-43" points="2831.43 1299.25 2555.86 1299.09 2555.94 1268.81 2831.53 1269.38 2831.43 1299.25"/></g><g class="cls-47"><polygon class="cls-43" points="2829.44 1889.2 2554.18 1897 2554.27 1866.8 2829.54 1859.41 2829.44 1889.2"/><polygon class="cls-43" points="2829.28 1938.85 2554.04 1947.31 2554.12 1917.12 2829.38 1909.06 2829.28 1938.85"/></g><polygon class="cls-53" points="2553.86 2011.04 2356.76 2017.7 2358.98 1091.77 2556.43 1093.84 2553.86 2011.04"/><polygon class="cls-15" points="2531.63 1211.51 2387.12 1210.81 2387.28 1146.36 2531.8 1147.5 2531.63 1211.51"/><polygon class="cls-54" points="2359.1 1091.41 2251.97 1144.82 2251.97 2017.66 2358.8 2015.96 2359.1 1091.41"/><polygon class="cls-55" points="3100.83 2071.26 1314.96 2138.63 1314.98 2046.2 3101.16 1986.35 3100.83 2071.26"/><polygon class="cls-56" points="3013.53 3022.54 2825.57 3038.45 2828.61 2137.35 3016.88 2129.72 3013.53 3022.54"/><g class="cls-47"><polygon class="cls-43" points="3016.61 2201.8 2828.36 2210.09 2828.46 2180.33 3016.72 2172.32 3016.61 2201.8"/><polygon class="cls-43" points="3016.43 2250.92 2828.19 2259.67 2828.3 2229.92 3016.54 2221.45 3016.43 2250.92"/></g><g class="cls-47"><polygon class="cls-43" points="3013.91 2921.32 2825.91 2936.29 2826.01 2906.63 3014.02 2891.93 3013.91 2921.32"/><polygon class="cls-43" points="3013.72 2970.31 2825.75 2985.73 2825.85 2956.07 3013.83 2940.92 3013.72 2970.31"/></g><polygon class="cls-57" points="2828.42 2137.59 2681.8 2146.01 2688.09 3104.16 2827.22 3102.84 2828.42 2137.59"/><polygon class="cls-58" points="2825.57 3038.45 2550.92 3061.69 2553.32 2205.45 2828.42 2193.56 2825.57 3038.45"/><polygon class="cls-36" points="2744.4 2903.08 2634.51 2911.61 2636.19 2348.64 2746.19 2343.1 2744.4 2903.08"/><polygon class="cls-59" points="2550.92 3061.69 2354.23 3078.33 2356.43 2156.46 2553.48 2148.48 2550.92 3061.69"/><polygon class="cls-15" points="2528.73 2266.88 2384.52 2273.53 2384.68 2209.36 2528.9 2203.15 2528.73 2266.88"/><polygon class="cls-15" points="2526.68 3013.61 2382.68 3025.44 2382.84 2961.47 2526.85 2950.07 2526.68 3013.61"/><polygon class="cls-60" points="2356.38 2156.57 2209.76 2165 2216.05 3123.14 2355.18 3121.83 2356.38 2156.57"/><polygon class="cls-61" points="2354.23 3078.33 2077.58 3101.74 2079.24 2188.24 2356.38 2176.76 2354.23 3078.33"/><polygon class="cls-36" points="2136.92 3096.69 2076.33 3101.74 2076.61 2187.99 2137.27 2185.84 2136.92 3096.69"/><polygon class="cls-62" points="2077.58 3101.74 1871.74 3119.16 1873.05 2176.02 2079.28 2167.68 2077.58 3101.74"/><g class="cls-47"><polygon class="cls-43" points="2079.14 2243.08 1872.94 2252.16 1872.99 2221.02 2079.2 2212.24 2079.14 2243.08"/><polygon class="cls-43" points="2079.05 2294.48 1872.87 2304.06 1872.91 2272.93 2079.11 2263.64 2079.05 2294.48"/></g><g class="cls-47"><polygon class="cls-43" points="2077.78 2995.86 1871.89 3012.25 1871.93 2981.2 2077.83 2965.11 2077.78 2995.86"/><polygon class="cls-43" points="2077.68 3047.09 1871.82 3063.98 1871.86 3032.94 2077.74 3016.35 2077.68 3047.09"/></g><polygon class="cls-63" points="1874.05 2176.22 1723.34 2193.56 1723.34 3142.79 1872.94 3141.47 1874.05 2176.22"/><polygon class="cls-64" points="1871.74 3119.16 1570.63 3144.64 1571.32 2247.9 1872.97 2234.86 1871.74 3119.16"/><polygon class="cls-36" points="1782.47 2977.8 1661.99 2987.16 1662.56 2397.67 1783.17 2391.59 1782.47 2977.8"/><polygon class="cls-65" points="1570.63 3144.64 1354.75 3162.9 1355.06 2196.99 1571.36 2188.24 1570.63 3144.64"/><polygon class="cls-15" points="1544.47 2312.3 1386.18 2319.6 1386.2 2252.36 1544.52 2245.55 1544.47 2312.3"/><polygon class="cls-15" points="1543.92 3094.39 1385.88 3107.38 1385.9 3040.36 1543.96 3027.85 1543.92 3094.39"/><polygon class="cls-66" points="1355.95 2197.65 1273.29 2206.07 1273.29 3164.22 1354.75 3162.9 1355.95 2197.65"/></g><polygon class="cls-67" points="768.84 3009.02 1243.3 2988.39 1789.96 3007.54 1250.67 3125.42 768.84 3009.02"/><path class="cls-68" d="M1222.92,3530.22L838.59,3426.79c-38.71-10.42-68.78-48.77-68.78-86v-0.41c0-37.19,30.07-62.14,68.78-55.31l412.2,67.46Z" transform="translate(-71.79 -64)"/><path class="cls-69" d="M1862.42,3452.55l-621,69.35c-38.89,4.34-70.87-22.78-70.87-60.64v-25.69c0-37.86,32-71.1,70.87-74.2l621-49.43C1834.94,3363.09,1828.6,3411,1862.42,3452.55Z" transform="translate(-71.79 -64)"/><path class="cls-70" d="M1867.82,3459.43l-621.19,70.43c-50.73,5.75-92.77-29.78-92.77-79.32V3450c0-49.54,42-93.11,92.77-97.07l621.19-48.45c3.74-.29,6.76,2.82,6.76,7s-3,7.72-6.76,8L1246.64,3370c-40.81,3.32-74.51,38.43-74.51,78.22v0.54c0,39.79,33.7,68.45,74.51,64l621.19-68.31c3.74-.41,6.76,2.6,6.76,6.73S1871.56,3459,1867.82,3459.43Z" transform="translate(-71.79 -64)"/><path class="cls-71" d="M1239.06,3353l-400.47-67.87c-38.71-6.83-68.78-57.56-68.78-113.4v-0.61c0-55.84,30.07-100.15,68.78-98.72l424.82,15.78Z" transform="translate(-71.79 -64)"/><path class="cls-72" d="M1862.42,3293.65l-586.18,44.21c-57.81,4.36-105.67-38.12-105.67-95v-38.57c0-56.85,47.86-104.24,105.67-105.82l586.18-16C1834.85,3159.18,1828.69,3231,1862.42,3293.65Z" transform="translate(-71.79 -64)"/><path class="cls-73" d="M1867.82,3304.49l-621.19,48.45c-50.73,4-92.77-53.27-92.77-127.65v-0.82c0-74.38,42-135.93,92.77-137.19l621.19-15.44c3.74-.09,6.76,4.86,6.76,11.06s-3,11.32-6.76,11.43L1246.64,3113c-40.81,1.22-74.51,50.83-74.51,110.57v0.81c0,59.74,33.7,105.88,74.51,102.91L1867.82,3282c3.74-.27,6.76,4.53,6.76,10.74S1871.56,3304.2,1867.82,3304.49Z" transform="translate(-71.79 -64)"/><path class="cls-15" d="M1114.88,3297l-85.6-15c-20-54.56-18.49-104.68,0-164.58l85.6,6.09C1097.33,3186.6,1100,3243.7,1114.88,3297Z" transform="translate(-71.79 -64)"/><path class="cls-74" d="M2824.49,3445.09s-98.2,44.92-99.79,52.05,63.22-2.54,89.69-1.58,48.22-6.91,45.8-18.11-11.76-39.38-11.76-39.38Z" transform="translate(-71.79 -64)"/><path class="cls-75" d="M2820.81,3408.84l6.09,44.25s15.58,5.5,26-1.07l4.34-48.56Z" transform="translate(-71.79 -64)"/><path class="cls-76" d="M3283.8,3408.79l11.48,18.33a21.9,21.9,0,0,1,2.66,17.16c-4,15.28-11.88,45-15.34,52.81-4.72,10.58-68.32,17-68.32,17s-5.69-8,7.49-17.64,21.67-11.21,26.3-25.45,7.64-54.5,7.64-54.5Z" transform="translate(-71.79 -64)"/><path class="cls-77" d="M3236.09,3362.25c4.19,3.32,24.77,65.29,24.77,65.29s6.64,8.44,19.17-4.07,5.67-5.61,5.67-5.61l-2.5-61Z" transform="translate(-71.79 -64)"/><path class="cls-78" d="M2764.58,2519.69c-4.87,132-4.74,275.5,3.23,428.73,9,172.55,26.54,332,48.55,476.54,8.05,0.24,16.52.26,25.36,0,6-.18,11.75-0.49,17.34-0.88a1098.33,1098.33,0,0,0,36.15-116.59A1121,1121,0,0,0,2920.31,3171c18.57-149.6-3.65-162.59,11.45-273.46,13.37-98.19,32.71-102.07,55.09-241.49,24.28-151.27,5.88-173.91-3.06-182.09C2945.73,2439.19,2856.56,2463.16,2764.58,2519.69Z" transform="translate(-71.79 -64)"/><path class="cls-79" d="M2983.8,2474c-36.31-33.19-119.11-12.84-206.5,38.15,100.93,108.52,112.08,179.06,100.12,224.87-13.51,51.78-54.95,66.78-54.65,123.36,0.36,69.53,63.16,87.79,62,161.37-0.76,48.65-28.34,48.21-34.71,108.32-7.53,71.12,28.55,95.53,17,148.16-5,22.64-19.22,52.25-60,82.81,3,21.59,6.06,43,9.26,63.95,8.05,0.23,16.51.26,25.35,0,6-.18,11.75-0.48,17.34-0.88a1097.77,1097.77,0,0,0,36.15-116.59A1121,1121,0,0,0,2920.31,3171c18.57-149.6-3.65-162.59,11.45-273.46,13.37-98.19,32.71-102.07,55.09-241.49C3011.14,2504.8,2992.74,2482.16,2983.8,2474Z" transform="translate(-71.79 -64)"/><path class="cls-80" d="M2826.93,2517.32a2964.83,2964.83,0,0,1,408.54,869,53,53,0,0,0,29,4.43c18.71-2.52,29.9-14.5,32.83-17.84a853.92,853.92,0,0,0,7-210.56c-3.06-33.51-8.46-89.32-30-158.17-24.12-77.13-40.58-81.43-72-163-32.61-84.68-24.81-105.85-56.1-211.85a1399.72,1399.72,0,0,0-69.75-185.82Z" transform="translate(-71.79 -64)"/><path class="cls-81" d="M2473.58,2338.66c0.82,30.81,51.46,58,92.24,66.27,95.34,19.46,205.87-49.81,258.33-126.44,10.3-15,21.75-33.29,24.51-31.88,6.24,3.19-51.08,97.36-75.93,204.47-12.71,54.79-9.39,80.45-33.15,116.93-5.38,8.26-12,16.87-9.69,26.64,5.84,24.48,61.83,30.84,100.67,35.25,41,4.66,79.24,4.2,117,3.65,60.51-.88,65.28-4,79.09,2.75,42.09,20.66,39.24,70.15,70.91,76.75,26.6,5.54,53.58-24.16,62.14-33.58,44.47-49,42.09-108,50-167.5,18.34-138.4,93.53-290,167.08-386,22.31-29.11,37.82-44.42,38.79-71.48,2.84-79.42-123-167.09-227.74-177.17-28.71-2.76-80.13-1.89-128.33,2.65-19.27,1.81-39.78,4.49-61.82,8.34-53.46,9.35-90.68,15.86-128.61,33.22-152.95,70-119.57,225.76-285.12,333.47C2527.06,2292,2472.72,2306.39,2473.58,2338.66Z" transform="translate(-71.79 -64)"/><path class="cls-82" d="M3100.26,1794.92s6.57,36.66,21.69,62.76c13.67,23.58,70.17,32,81.94,36.15s-17.76,24.61-49.16,32-123.26,12.29-141.25,2.41,11.68-12.91,33.29-24.27,28.84-57.54,22.15-77.17S3100.26,1794.92,3100.26,1794.92Z" transform="translate(-71.79 -64)"/><path class="cls-83" d="M3040.56,1784.31c-22.79-16.29-29.1-60.33-16.44-70.22,3.62-2.83,7.07-1.53,58.5,19.1,25.54,10.25,38.1,15.7,42.24,27,2.53,6.89,2.12,16.19-.67,23.52-1.44,3.77-4.24,8.47-10.46,17.43-5.53,8-5.15,7.68-6.85,10-4.07,5.55-11.92,14.9-26.3,25.73a87.39,87.39,0,0,0-4.18-14.57,77.14,77.14,0,0,0-9.31-17.31C3058.12,1793,3048,1789.6,3040.56,1784.31Z" transform="translate(-71.79 -64)"/><path class="cls-84" d="M3099,1826.2s-14.91,22.21-42.53,19.2c-24.73-2.7-25.93-58.47-9.57-69.58,5.46-3.71,16.11-4.88,24.61-2.09,5,1.65,6.65,3.84,14.9,6.37,7.61,2.34,9.83,1.58,12.07,3.64,2.8,2.57,4.67,8.67-.9,24.71,4.94-4.58,10.7-6.17,14.64-4.1a8.46,8.46,0,0,1,3.16,3.36C3118.54,1814.21,3112.38,1822.07,3099,1826.2Z" transform="translate(-71.79 -64)"/><path class="cls-85" d="M2607.31,2333.92c69.12-15.57,96.67-15.07,130.85-42.61,56.91-45.86,65.46-115.65,98.53-114.79,15.63,0.4,28.33,16.36,37.36,32l-25,39.12a1.17,1.17,0,0,0-.42-1c-2.76-1.41-14.21,16.83-24.51,31.88-52.46,76.63-163,145.9-258.33,126.44-27.34-5.58-59-19.64-77.26-37.57A1179.9,1179.9,0,0,1,2607.31,2333.92Z" transform="translate(-71.79 -64)"/><path class="cls-86" d="M3334.77,2599.67c41.88,3.74,136.14,5.44,202.81-56.24,111-102.68,55.93-298.13,17.3-382.19-44.3-96.38-114.8-150.32-157.64-183.1-53.16-40.67-85.6-65.5-124.63-59.94-100.95,14.38-170.86,221.27-115.45,280.51,18.14,19.39,36.11,8.41,88.61,25.13,17.1,5.45,144.71,46.09,166.93,140.08,15.55,65.78-24,142.81-94.51,194.55Z" transform="translate(-71.79 -64)"/><path class="cls-87" d="M2865.38,2565.59c47.41-30,54.42-60.33,107.51-80.84,69-26.66,102.11,7.2,136.3-20.13,40.69-32.53,4.67-89.21,35.12-187.57,5.17-16.7,44.43-143.5,134.5-159.65,42-7.53,97.48,8.56,118.86,44.15,16.73,27.86,1.14,48.62,21.49,79.38s44.64,23.22,70.55,48.85c41.15,40.7,47.45,126.53,10.31,175.07-17.33,22.64-39.84,31.59-82.21,48.44a399.09,399.09,0,0,1-70.65,20.75c51.88-49.79,78.8-114,65.54-170.09-13.85-58.59-68.65-96.45-112.11-118-43.49,81.84-79,176.68-90.87,266-7.89,59.53-5.51,118.55-50,167.5-8.55,9.42-35.54,39.12-62.14,33.58-31.67-6.6-28.82-56.1-70.91-76.75-13.81-6.78-18.58-3.64-79.09-2.75-37.8.55-76,1-117-3.65-34.54-3.92-82.56-9.42-96.89-27.8C2796,2600.4,2837.64,2583.12,2865.38,2565.59Z" transform="translate(-71.79 -64)"/><path class="cls-88" d="M3307.28,2632.58l4.88-14.35c7.78-22.88-5-47.28-28.55-54.45l-922.84-281.11L2332.65,2378l918.18,282.81C3274.24,2668,3299.52,2655.39,3307.28,2632.58Z" transform="translate(-71.79 -64)"/><path class="cls-89" d="M1443.74,2024.44c70.56-278.75,347-446.74,620.49-368,278.46,80.18,437.88,381.88,353.28,666.29-82.62,277.73-365.94,427.55-630.32,341.87C1527.37,2580.38,1374.78,2296.85,1443.74,2024.44Zm893.44,273.68c69.92-238-63.49-490.11-296-557.75-229-66.62-461.69,73.22-521.73,307.26-58.89,229.56,69.71,468.83,289.09,539.32C2031.14,2658.48,2268.63,2531.45,2337.18,2298.12Z" transform="translate(-71.79 -64)"/><path class="cls-90" d="M2360.77,2282.66l117.67,35.84c8.07,37.53,23.77,59,39.57,72.12,59.43,49.27,138.8-4.47,249.52,53.31,55.56,29,45,47.44,97.08,67.67,86.1,33.44,125.51-12.88,201.71,17.56,77.07,30.79,84.67,97.32,128.38,94.93,18.7-1,42.77-14.62,69.61-66.2l19.3,5.88c23.54,7.17,36.33,31.57,28.55,54.45l-4.88,14.35c-7.75,22.81-33,35.41-56.45,28.2L2332.65,2378Z" transform="translate(-71.79 -64)"/><path class="cls-91" d="M1786.73,2625.1C2017,2699.2,2262.87,2568,2334,2326.52c72.57-246.48-65.58-507.61-306.47-577.56-237.13-68.85-477.83,76.1-539.81,318.32C1426.93,2304.7,1559.92,2552.11,1786.73,2625.1Z" transform="translate(-71.79 -64)"/><path class="cls-92" d="M1425.86,2048.35c70.56-278.75,347-446.74,620.49-368,278.46,80.18,437.88,381.88,353.28,666.29-82.62,277.73-365.94,427.55-630.32,341.87C1509.5,2604.29,1356.91,2320.76,1425.86,2048.35ZM2319.3,2322c69.92-238-63.49-490.11-296-557.75-229-66.62-461.69,73.22-521.73,307.26-58.89,229.56,69.71,468.83,289.09,539.32C2013.27,2682.38,2250.76,2555.35,2319.3,2322Z" transform="translate(-71.79 -64)"/><path class="cls-93" d="M1452.59,2056.54c66.87-262.94,327.89-420.92,585.59-346.45,262.15,75.76,412.36,359.86,333,627.82-77.6,262-344.7,403.84-594.34,323.18C1531.27,2581.75,1387.15,2313.82,1452.59,2056.54ZM2319.3,2322c69.92-238-63.49-490.11-296-557.75-229-66.62-461.69,73.22-521.73,307.26-58.89,229.56,69.71,468.83,289.09,539.32C2013.27,2682.38,2250.76,2555.35,2319.3,2322Z" transform="translate(-71.79 -64)"/><path class="cls-94" d="M3331.22,2590.83l-9.33-23.18s-15.22.93-27.72-8c-6.81-4.88-18.89-6.34-22.4-5.36s-16.77.39-1.66,7.61,15,12.57,8.7,18.49-30.27,18.65-38.9,19.26,7,14,15.67,15.67,23,3.86,40.63-6.54C3302.65,2605,3331.22,2590.83,3331.22,2590.83Z" transform="translate(-71.79 -64)"/><path class="cls-95" d="M2494.73,2427.89s-39-38.42-62.25-48.36-38.26,4.33-36.12,14.22,40.37,23.64,55.65,24.14S2494.73,2427.89,2494.73,2427.89Z" transform="translate(-71.79 -64)"/></g></g></svg>